<?xml version="1.0" encoding="utf-8"?>
<!-- Generator: Adobe Illustrator 19.1.0, SVG Export Plug-In . SVG Version: 6.00 Build 0)  -->
<svg version="1.1" id="Layer_1" xmlns="http://www.w3.org/2000/svg" xmlns:xlink="http://www.w3.org/1999/xlink" x="0px" y="0px"
	 viewBox="-43 135.5 523.5 523.5" style="enable-background:new -43 135.5 523.5 523.5;" xml:space="preserve">
<style type="text/css">
	.st0{fill:#FFFFFF;}
	.st1{fill:#FF4200;}
</style>
<g id="Layer_1_1_">
	<g>
		<g>
			<path d="M220.7,135.6C76.2,134.8-41.6,251.5-42.3,396S73.6,658.3,218.1,659s262.3-115.9,263-260.4
				C481.9,254,365.2,136.3,220.7,135.6z M218.2,647.1c-138-0.7-249.3-113.1-248.6-251c0.7-138,113.1-249.3,251.1-248.6
				S470,260.6,469.3,398.6C468.6,536.5,356.2,647.8,218.2,647.1z"/>
			<path d="M220.3,213.9C119,213.4,36.6,295.1,36.1,396.3C35.6,497.6,117.3,580,218.5,580.5c101.3,0.5,183.7-81.2,184.2-182.4
				C403.3,296.9,321.6,214.4,220.3,213.9z M218.6,567.7c-94.1-0.5-170-79.8-169.6-171.3c0.5-96.8,77.1-170.1,171.3-169.6
				c94.1,0.5,170.1,74.5,169.6,171.3C389.4,489.6,312.7,568.2,218.6,567.7z"/>
			<g>
				<g>
					<path d="M153,182.2c-1.7,0.6-3,1.6-3.8,3.1c-0.7,1.5-0.8,3.3-0.3,5c0.9,2.8,4.1,5,7.9,3.8c3.6-1.2,5.4-4.5,4.3-7.9
						c-0.5-1.7-1.6-3-3.1-3.7C156.5,181.7,154.8,181.6,153,182.2z"/>
					<g>
						<path d="M77,562.1c5.3-5.6,11-10.6,11.8-11.3c0.7-0.6,2.1-1.6,3.2-1.5c1.1,0.1,1,2.2,1.1,3c0.1,6.3,0,11.2,0,16.6
							c0,0,0,2.4,0,3c-4.2,0.2-9.4,1.1-12.7,6.2c-1.2,1.9-1.8,3.7-1.9,5.5c-0.2,4.4,2.9,8.6,9.4,12.8c2,1.3,4.2,2.5,6.3,3.7l4.6,2.7
							c2.5,1.6,4.2,2.9,5.1,3.9c0.4,0.4,1,0.3,1.5,0s0.7-0.8,0.5-1.2c-0.5-1.1-0.5-2.4,0-4.3c0.5-1.5,4.1-7.9,8.2-14.2
							c3.7-5.6,8.2-12.3,10-14c1.8-1.5,3.3-1.5,3.7-1.4c0.5,0,0.9-0.3,1-0.7s-0.1-1-0.4-1.2c-1.5-0.9-2.9-1.6-4.2-2.2
							c-1.1-0.5-2.2-1-3.2-1.6c-1.1-0.7-2.2-1.7-3.3-2.7c-1-1-2.1-2-3.2-2.7c-0.4-0.3-0.9-0.1-1.4,0.4c-0.2,0.3-0.3,0.5-0.3,0.8
							c0,0.2,0.1,0.4,0.2,0.6c0.9,0.9,1.1,2,1,2.8c0,0.4-0.1,0.7-0.2,0.8c-0.8,2-3.2,5.9-6.1,10.8c-0.5-0.4-3.2-2.3-3.4-2.4
							c-0.2-1.5-0.1-4.5,0.1-7.8c0.2-4.2,0.4-8.6-0.1-10.7c-0.5-2.5-11.9-10.2-11.9-10.2c-1-0.7-3-2.3-3.8-3.2
							c-1.1-1.1-2-2.3-2.9-3.4l-2.5-2.9c-0.3-0.3-0.9-0.2-1.4,0.1c-0.4,0.3-0.6,0.6-0.6,0.9c0,0.1,0,0.2,0.1,0.3
							c0.2,0.4,0.2,0.9,0.2,1.4c-0.1,1.1-0.5,2.4-0.8,2.9c-0.9,1.8-3.1,4.3-8.9,10c-0.5-0.5-6.9-6.9-6.9-6.9s-6.1-6.4-6.5-6.9
							c1.9-1.9,9.2-8,10.5-8.9c1.2-0.9,2.7-1.2,3.6-0.9h0.1h0.1c0.6,0,1-0.9,1.1-1.2c0.2-0.6,0-0.9-0.2-1c-1.5-1.1-4.3-3.4-5.8-5.1
							c-1.1-1.3-2.2-2.7-3.1-4l-1.1-1.5c-0.3-0.4-0.8-0.5-1.4-0.2c-0.5,0.2-1.1,0.8-1,1.4v0.1v0.1c0.2,0.3,0,2-0.5,3.1
							c-0.8,1.8-5.4,6.7-12.6,13.3c-4,3.6-9.9,8.6-11.9,10c-1.4,1-2.1,1-3.4,0.9H32c-0.4,0-0.8,0.3-0.9,0.7
							c-0.2,0.4-0.1,1.1,0.3,1.5l1.6,1.4c1.2,1,2.4,2,3.4,3.1l1.1,1.4l3.2,4.1c0.3,0.4,0.8,0.5,1.2,0.3c0.5-0.2,0.8-0.6,0.8-1v-0.1
							c0-0.3,0-0.5,0-0.8c0-0.9,0.4-1.7,1-2.7c0.8-1,6.7-6.8,9.6-9.5c1.9,1.6,3.5,3.4,5.1,5.1l1.6,1.7c2,2.1,5.6,5.8,7,7.4
							c-3.2,3.2-8,7.6-10.5,9.4c-1,0.8-2.5,0.8-3.1,0.8c-0.5-0.1-0.8,0.2-1,0.6c-0.2,0.4-0.2,1,0.3,1.4l1.9,1.6
							c1.2,1,2.5,2.1,3.8,3.4l0.6,0.5c1.4,1.4,3.1,2.9,4,4.3c0.4,0.5,1.1,0.4,1.6,0.2c0.4-0.2,0.7-0.5,0.6-0.9
							c-0.1-1.4-0.2-2.5,0.7-4C67.2,572.4,72.9,566.4,77,562.1z"/>
						<path d="M18.5,486.6c-11.8,7.8-14.1,20.1-6.2,32.1c3.7,5.5,9,9.2,14.9,10.4c6,1.2,12.1-0.2,17.8-3.9
							c5.4-3.6,8.9-8.6,10.1-14.3c1.2-5.8-0.2-12.1-3.8-17.5c-3.8-5.6-9.2-9.4-15.2-10.6C30.2,481.5,24.1,482.9,18.5,486.6z
							 M16,509.7c0.3-5.5,6-10.3,10-13c8.3-5.5,15.5-5.5,19.3,0.1c1.4,2.1,1.9,4.5,1.4,7c-0.8,4-4,8.1-8.9,11.3
							c-8.8,5.8-16.3,5.8-20.2,0C16.4,513.3,15.9,511.4,16,509.7z"/>
						<path d="M3,437.7L3,437.7c-6.2,2.2-10.5,5.6-12.6,10c-2.4,5.1-2.1,11.7,0.9,20.2c0.8,2.2,1.8,4.5,2.7,6.7l2.1,5
							c0.5,1.5,1.8,5.1,2,7c0,0.5,0.5,0.8,1.1,0.8s1.2-0.2,1.3-0.7c0.3-1.3,0.9-2.4,2.7-3.7c1.8-1.2,8.1-4,14.7-6.4
							c7.3-2.6,13.8-4.4,16.5-4.5c2.1-0.1,3.8,0.6,4.3,1.1c0.5,0.3,1,0.3,1.4-0.1c0.3-0.3,0.4-0.8,0.2-1.2l-1.3-2.6
							c-0.9-1.7-1.8-3.5-2.6-5.5c-0.4-1.2-0.7-2.5-1.1-4.1c-0.5-2.1-1-4.4-2-7.3c-2.4-6.9-6.6-11.9-12.1-14.5
							C16,435.5,9.6,435.4,3,437.7z M-2.8,465.9L-2.8,465.9c-0.6-1.6-0.8-3.2-0.8-4.7c0.1-1.4,0.4-2.7,1-4c1.7-3.6,5.4-6.5,10.7-8.4
							c9.9-3.5,16.6-1.7,19,5.1c0.6,1.7,1.1,3.8,1,5.1c0,0.6-0.2,1.1-0.4,1.3c-0.6,0.6-2.9,1.5-13,5.1c-6.9,2.5-12.1,4.1-15.5,5.1
							C-1.7,468.8-2.3,467.3-2.8,465.9z"/>
						<path d="M13.7,396.2c-0.1,0.2-0.1,0.4-0.2,0.6c0,0.3,0.1,0.7,0.4,0.9l0,0c2.6,1.9,3.7,3.7,4.4,10.6c0.2,2.2,0.3,3.8,0.2,4.9
							c-0.1,2-0.5,2.6-0.9,2.8c-0.8,0.5-5.8,1.3-10.6,1.8c-0.3-2.8-0.7-7.2-0.5-10.2c0.1-1.5,0.3-2.6,0.7-3c0.1-0.2,0.2-0.4,0.2-0.6
							c0-0.4-0.2-0.9-0.3-1.1c-0.4-0.5-0.8-0.5-0.9-0.4c-1.2,0.5-3.1,0.7-4.1,0.8c-0.9,0.1-2.4,0.1-4.1,0c-0.1,0-0.4,0-0.6,0.4
							c-0.1,0.1-0.1,0.4-0.1,0.6c0,0.4,0,0.9,0.3,1.1c1,1,2.4,5,3.3,13.1c-4,0.4-8.7,0.7-12,0.9c-0.1-0.4-0.2-1.1-0.2-1.1l-0.6-4.1
							c-0.1-1.1-0.1-2.1-0.1-3.1c0.2-3.1,1.1-5.5,2.6-6.7c0.2-0.1,0.3-0.4,0.3-0.6c0-0.3-0.1-0.5-0.2-0.8c-0.3-0.5-0.6-0.7-1-0.6
							c-1.3,0.2-4.5,0.5-5.7,0.6l-2-0.2l-1.2-0.2c-0.5,0-0.8,0.2-1.1,0.5c-0.2,0.3-0.2,0.7-0.1,1.1c0.8,1.9,2,8,3.2,19.7
							c0.2,2.2,0.7,8.6,0.5,10.4c-0.1,0.3,0.1,0.7,0.8,1c0.6,0.2,1.3,0.2,1.5-0.3c0.6-1,1.4-2.1,3.5-2.9c1.9-0.8,8.4-2.1,15.8-2.8
							c7.7-0.8,14.4-1,17.1-0.5c1.9,0.4,3.5,1.5,4,2.1c0.4,0.4,0.8,0.5,1.2,0.3c0.4-0.2,0.7-0.6,0.6-1c-0.2-1.7-0.6-3.3-1-4.9
							c-0.4-1.4-0.7-2.8-0.9-4l-0.3-6c-0.1-3.5-0.3-8-0.6-11c-0.5-4.7-1.2-6-2.1-6.4c-1.6-0.9-4-1.5-8.3-2.1
							C14.3,395.6,13.9,395.8,13.7,396.2z"/>
						<path d="M-3.3,379.9c-1.2,1.1-1.9,2.7-2,4.6l0,0c-0.1,1.8,0.4,3.4,1.5,4.6s2.7,2,4.6,2.1c3,0.2,6.1-2,6.4-5.9
							c0.1-1.9-0.5-3.6-1.6-4.9c-1.1-1.2-2.6-1.9-4.2-2C-0.5,378.2-2.1,378.8-3.3,379.9z"/>
						<path d="M-15.2,353.3c-0.4,0.1-1.3,0.6-1.2,1.2v-0.1c0.1,1.8-0.1,4.3-0.6,7.6c-0.5,3.4-1.1,6.4-1.7,7.8
							c-0.2,0.4,0.1,0.9,0.6,1.3c0.5,0.3,1.1,0.4,1.5,0c0.8-1,1.9-1.7,4.1-2c2-0.2,8.7,0.4,16,1.5c6.7,1,14.8,2.4,16.9,3.4
							c1.7,0.8,2.1,1.7,2.5,2.5l0.1,0.1c0.2,0.4,0.6,0.5,1.3,0.5c0.3,0,1-0.2,1.1-0.7l0.2-3.3l0.4-5.3c0.3-1.9,1.1-5.2,1.8-7.7
							c0.1-0.5-0.1-0.9-0.6-1.2c-0.5-0.3-1.2-0.4-1.6,0c-0.6,0.8-1.9,2.1-4.4,2.4c-2.5,0.2-7.5-0.3-16.2-1.5
							c-6.1-0.9-12.5-2.2-14.9-2.8c-2.6-0.7-3.6-2-4.1-3.1C-14.3,353.4-14.6,353.1-15.2,353.3z"/>
						<path d="M-5.8,317c-0.4,0.2-0.8,0.6-0.8,1l0,0c-0.1,1.4-0.8,3.1-1.6,5c-0.6,1.5-1.3,3.2-1.9,5c-1.8,6.3-1.7,10.4,0.3,14.1
							c1.4,2.6,3.9,4.6,6.7,5.4c5.7,1.6,10.5,0,15.2-5.1c5.5-6,8.1-6.7,10.9-5.9c1,0.3,1.8,0.9,2.3,1.9c0.8,1.4,0.9,3.4,0.4,5.3
							c-1.3,4.4-4.5,7.2-8.6,7.5c-0.5,0-0.8,0.3-0.9,0.9s0.2,1.5,0.7,1.6H17h0.1c0.8,0,2.4,0.4,3.3,0.7c2.8,0.8,5.4,2.9,5.4,2.9
							c0.5,0.3,1.1,0.3,1.5,0.1c0.3-0.2,0.5-0.4,0.5-0.7c0.4-2.1,1.2-4,2.1-6.1c0.7-1.8,1.5-3.6,2.1-5.7c2.9-10.1-0.1-17.6-8.1-19.9
							c-4.9-1.4-9.6,0.4-14.5,5.8c-4.2,4.6-7,6.8-10.3,5.8c-1.2-0.4-2.1-1-2.7-2.1c-0.7-1.3-0.8-3.1-0.3-5c1.2-4.3,3.7-6.5,7.1-6.5
							c0.3,0,0.7-0.1,0.8-0.8c0.1-0.6,0-1.5-0.6-1.7l-1-0.2l-2-0.4c-2.8-0.8-3.8-1.5-5-2.6C-5,317-5.4,316.8-5.8,317z"/>
						<path d="M40,296.8c-0.4,0.3-0.7,0.7-0.5,1.2l0,0c1.2,3.5,1.8,4.6-0.4,9.6c-1.4,3.1-2.1,3.4-3.2,3.4c-1.3-0.1-5.2-1.7-13.1-5.5
							c-5.4-2.6-11.8-6.2-13.3-7.3c-2.1-1.6-2.6-2.9-2.9-4.4c0-0.2-0.3-0.7-1.2-0.6c0,0-1.2,0.2-1.2,0.8c-0.5,1.6-1.5,4.2-3,7.3
							c-1.5,3-2.9,5.6-3.9,6.8c-0.3,0.3-0.2,0.9,0.2,1.4c0.4,0.4,1,0.8,1.4,0.5c1-0.6,2.3-1.1,4.5-0.7c2,0.4,8.6,3.5,14.7,6.4
							c7,3.3,12.8,6.7,14.8,8.5c1.5,1.4,2.3,3,2.3,3.7c0.1,0.5,0.5,0.8,0.9,0.9c0.4,0,0.9-0.2,1.1-0.5c0.7-1.5,1.2-2.9,1.7-4.2
							c0.4-1.2,0.8-2.3,1.4-3.5l2.1-4.2l3-6c2-4.1,2.4-5.4,1.6-6.6c-0.9-1.5-3.4-4.8-5.5-7C40.9,296.4,40.4,296.5,40,296.8z"/>
						<path d="M28.3,251.5c-1,2.4-4.1,7.2-6,9.7l-0.2,0.3l0.2,0.2c3.7,4.4,8.3,10.6,14.9,19.8c5.5,7.5,9.5,13.5,10.2,14.9
							c0.4,0.7,0.5,1.3,0.6,2.2c0,0.4,0.4,0.7,1,0.7c0.2,0,1,0.1,1.2-0.4c0.6-1.5,1.8-3.4,2.6-4.6c0.9-1.3,1.5-2,2.7-3.1
							c0.4-0.3,0.2-1,0-1.4c-0.3-0.5-0.6-0.8-0.9-0.7c-0.4,0.1-0.8-0.1-1.4-0.5c-0.5-0.3-3.5-3.2-6.3-6.8c0.3-0.5,8-10.9,8.3-11.3
							c4.2,1.4,7.2,2.6,8.4,3.5c0.6,0.4,1.1,0.9,1.2,1.4c0,0.2,0.2,0.5,0.8,0.6c0.1,0,1,0.2,1.4-0.2c0.8-1.5,2.2-3.9,3.4-5.5
							c1.1-1.5,3.1-3.4,5.2-5.5c0.3-0.3,0.3-0.8-0.2-1.4c-0.4-0.4-1-0.8-1.3-0.5c-0.4,0.1-1.2,0.4-2.3,0.4c-2.2,0-10.5-2.2-17.6-4.2
							l-3.9-1.1l-3.4-1c-6.4-1.9-10.6-3.1-18-5.8l-0.4-0.1L28.3,251.5z M34.5,264.9c4.7,1,9.9,2.5,14.1,3.7c0,0,0.6,0.2,1.1,0.3
							c-0.5,0.8-5.8,7.9-6.3,8.6C41.6,275.2,37.3,269.3,34.5,264.9z"/>
						<path d="M83.5,199.5l-0.4,0.3c-1.9,1.9-5.6,5-9.3,7c-0.2,0.1-0.4,0.4-0.3,1c0.1,0.3,0.4,1.2,1,1.2c1-0.1,2.6,0.2,3.5,0.8
							c1.6,1.1,6.2,6.6,13.4,16.2c-3.6,0.1-7.4-0.1-15-0.4c-8.5-0.4-14.7-1.6-20.9-2.8h-0.2l-0.2,0.2c-2.3,3-5.8,6.7-8.7,9.1
							c-0.3,0.3-0.3,0.8,0.1,1.4c0.2,0.3,0.6,0.8,1.1,0.7c1.1-0.5,2.1-0.7,2.7-0.6c2.3,0.1,5.6,2.9,14.3,11.8
							c5.6,5.8,9.9,10.9,11.3,13.1c0.5,0.8,0.7,1.4,0.5,2.5c-0.1,0.4,0.1,0.8,0.6,1.1c0.4,0.3,1.1,0.4,1.5,0l1.1-1.4
							c1-1.2,1.6-2,2.9-3.2l3.1-2.4l1.4-1c0.4-0.4,0-1.3,0-1.3c-0.3-0.7-0.8-0.7-1-0.6c-1.4,0.1-2.5-0.1-3.1-0.5
							c-1.9-1.1-6.7-5.9-15.4-15.6c1.5,0.1,17,1,17,1l8.5,0.4c4.9,0.2,10,0.5,14.4,0.5c0.6,0,1.3-0.8,1.5-1.2
							c0.2-0.3,0.2-0.5,0.3-0.8c0-0.2,0-0.3-0.1-0.4c-2.4-3.2-4.4-5.6-6.8-8.6l-6.1-7.9c-6-8.3-9.4-12.5-10.5-14.8
							c-0.4-0.8-0.5-1.8-0.4-2.5c0-0.3,0.1-0.6,0.1-0.7c0-0.1,0-0.1,0-0.2c0-0.5-0.5-0.9-0.8-1.2C84,199.2,83.7,199.4,83.5,199.5z"
							/>
						<path d="M108.4,184.1L108.4,184.1c-2,1.3-4,2.8-5.9,4.2l-4.4,3.1c-1.3,0.8-4.6,2.9-6.4,3.5c-0.4,0.1-0.7,0.6-0.5,1.3
							c0.1,0.6,0.4,1.1,0.9,1.1c1.4,0,2.6,0.3,4.3,1.7c1.6,1.5,5.7,7.1,9.5,13c4.5,7,7.9,13.6,8.1,15c0.4,2.1,0.4,3.7-0.1,4.5
							c-0.2,0.6,0,1,0.4,1.3c0.4,0.2,0.9,0.2,1.2-0.1l2.2-1.8c1.5-1.3,3-2.6,4.8-3.7c1.1-0.7,2.3-1.3,3.7-1.9
							c1.9-0.9,4.1-1.9,6.6-3.6c6.1-3.9,10.1-9.1,11.4-15.1c1.3-5.8,0-12-3.8-17.9c-3.6-5.6-7.8-8.9-12.6-10
							C122.3,177.5,116,179.3,108.4,184.1z M111.7,189.3c2.6-1.7,5.6-2.3,8.5-1.7c3.9,0.8,7.5,3.8,10.6,8.5c5.8,9,5.6,15.7-0.7,19.7
							c-2.2,1.5-5.2,2.8-6.3,2.2l0,0c-0.8-0.4-2.4-2.8-8-11.5c-3.9-6.1-6.6-10.6-8.4-13.9C109,191.2,110.5,190.1,111.7,189.3z"/>
						<path d="M188,159.5L188,159.5c-1.3,0.5-3.1,0.7-5.1,0.9c-1.6,0.1-3.4,0.3-5.3,0.7c-6.4,1.3-10,3.3-12.3,6.9
							c-1.6,2.5-2.2,5.6-1.6,8.4c1.2,5.8,4.9,9.3,11.6,11.1c7.9,2.1,9.4,4.1,10,7s-2.2,5.1-5.1,5.7c-4.5,0.9-8.2-0.6-10.4-4.1
							c-0.2-0.4-0.7-0.6-1.2-0.4c-0.5,0.2-1.2,0.8-1.1,1.3v0.1v0.1c0.4,0.7,0.7,2.3,0.9,3.2c0.6,2.8-0.1,6.1-0.1,6.1
							c0,0.6,0.3,1.1,0.6,1.3s0.6,0.2,0.8,0.1c2-0.6,4.1-0.8,6.3-1c1.9-0.2,3.6-0.3,5.8-0.8c5.8-1.2,10-3.6,12.2-7
							c1.8-2.7,2.3-5.9,1.6-9.3c-1-5-4.5-8.3-11.6-10.2c-6-1.6-9.2-3.1-9.9-6.4c-0.6-2.9,1.3-5.2,4.9-5.9c4.3-0.9,7.5,0.2,9,3.3
							c0.1,0.3,0.5,0.5,1.1,0.4c0.6-0.2,1.3-0.7,1.2-1.3l-0.3-1l-0.6-1.9c-0.6-2.9-0.4-4.1,0-5.7c0.1-0.4,0.1-0.8-0.3-1.1
							C188.9,159.4,188.3,159.3,188,159.5z"/>
						<path d="M235.8,157.9L235.8,157.9L235,158l-1.7,0.1l-4-0.3l-5.6-0.4c-8.9-0.2-14.3,1.7-19,6.1c-4,3.8-6.1,9.3-6.2,16.5
							c-0.3,12.9,8.3,22.1,21.5,22.4c6.3,0.2,10.8-1,12.4-2.1c1-0.8,2-3.3,3.5-7.3c0.1-0.2,0.1-0.5-0.5-0.9c-0.4-0.3-1-0.5-1.4-0.1
							c-2,2-5.8,3.2-10.4,3.1c-8.8-0.2-13.2-6.4-13-17.2c0.1-5.3,1.5-9.3,4.1-11.7c2-2,4.4-3,7.9-2.9c5,0.1,9.3,2.4,10.8,5.7
							c0.2,0.5,1,0.4,1.5,0.3c0.8-0.3,0.8-0.7,0.8-0.9c-0.4-1.9,0.3-7.1,1-9.2c0.1-0.2,0.1-0.6-0.1-0.9
							C236.4,158.1,236.1,157.9,235.8,157.9z"/>
						<path d="M246.2,159.5c-0.3,0.4-0.3,0.8,0,1.1v0.1c0.8,1.1,1.5,2,1.6,3.6c0.1,1.9-1.4,10-2.5,15.9c-1.4,6.9-3.3,14.8-4.3,17
							c-0.9,1.8-2.3,2.4-3.1,2.7c-0.4,0.2-0.5,0.7-0.5,1.2s0.3,0.8,0.6,0.9c1.7,0.4,3.3,0.5,4.8,0.6c1.2,0.1,2.4,0.2,3.5,0.4
							c1.5,0.3,2.9,0.8,4.3,1.2l3.7,1.1c0.5,0.1,0.9-0.4,1.1-0.9c0.1-0.2,0.1-0.4,0.1-0.5c0-0.3-0.1-0.6-0.3-0.7
							c-1.1-0.7-1.8-3.1-1.9-3.9c0-0.5-0.1-1,0-1.6c0.1-2.1,0.7-5.5,2-11.6c0.7,0.2,9.5,2,9.5,2s8.6,2,9.3,2.2
							c-0.6,2.6-3.4,11.7-4,13.2c-0.6,1.4-1.6,2.5-2.6,2.7h-0.1h-0.1c-0.2,0.2-0.3,0.5-0.4,0.8c0,0.3,0,0.6,0.1,0.8
							c0.2,0.6,0.5,0.7,0.7,0.7c1.8,0.1,5.4,0.5,7.7,1.1c1.7,0.4,3.3,1.1,4.8,1.7l1.7,0.7c0.4,0.2,0.9-0.1,1.3-0.5
							c0.2-0.3,0.3-0.6,0.3-0.9c0-0.3-0.1-0.6-0.3-0.8l0,0h-0.1c-0.3-0.2-1.1-1.7-1.2-2.9c-0.1-0.3-0.1-0.8,0-1.4
							c0.1-2.9,1.3-8.8,3.3-16.7c1.4-5.2,3.6-12.7,4.5-14.9c0.6-1.6,1.2-2,2.3-2.7l0.6-0.4c0.3-0.2,0.4-0.4,0.4-0.8
							c0-0.1,0-0.2,0-0.4c-0.1-0.5-0.5-1-1.1-1l-2.1-0.3c-1.5-0.2-3-0.3-4.6-0.7l-1.7-0.5l-5-1.7c-0.4-0.2-0.9,0-1.2,0.4
							c-0.2,0.2-0.2,0.5-0.3,0.7c0,0.3,0.1,0.5,0.2,0.7c0.8,0.9,1.1,1.9,1.1,3.5l0,0c-0.1,1.3-1.9,9.4-2.8,13.2
							c-2.4-0.3-4.8-0.9-7.1-1.4l-2.2-0.5c-2.8-0.6-7.8-1.8-9.9-2.4c0.9-4.4,2.5-10.7,3.6-13.6c0.4-1.2,1.6-2,2.1-2.3
							c0.3-0.2,0.5-0.5,0.5-0.8c0-0.1,0-0.2,0-0.3c-0.1-0.4-0.4-0.9-1-1l0,0l-2.5-0.3c-1.5-0.2-3.3-0.4-5.1-0.7l-0.8-0.1
							c-2-0.4-4.2-0.8-5.7-1.4C247.1,158.7,246.5,159.1,246.2,159.5z"/>
						<path d="M306.1,179.3c-5.8,1.9-10.4,6.2-13.4,12.2c-1.6,3.2-2.5,6.5-2.7,9.7c-0.1,2.6,0.2,5.2,1,7.7c1.9,5.6,6.2,10.4,12,13.3
							c10.2,5.1,24.5,4,31.7-10.4c6.3-12.6,2.2-24.5-10.6-30.9C318.3,178,311.9,177.4,306.1,179.3z M306.5,216.3
							c-2.3-1.1-3.9-3-4.7-5.4c-1.3-3.8-0.5-9,2.1-14.2c4.7-9.4,11.2-13.2,17.5-10.1c8.3,4.1,4.7,14.4,1.9,20.2
							C318.8,215.8,312.6,219.3,306.5,216.3L306.5,216.3L306.5,216.3z"/>
						<path d="M356.3,206.2c-6.1,0.4-11.6,3.4-16.1,8.5c-4.3,4.9-6.3,10.6-5.9,16.5s3.4,11.6,8.3,15.9c5.1,4.4,11.3,6.6,17.5,6.2
							c6-0.4,11.5-3.3,15.8-8.4c4.5-5.2,6.6-10.9,6.2-16.6c-0.4-5.8-3.5-11.3-8.8-15.9C368.4,207.9,362.3,205.7,356.3,206.2z
							 M349.8,222.4c6.9-8,14.2-10,19.5-5.4c7,6.1,1,15.2-3.2,20c-6.5,7.6-13.5,9.4-18.6,5l0,0C342.5,237.8,343.4,229.9,349.8,222.4
							z"/>
						<path d="M395.6,236.2c-0.6,0.2-1.1,0.5-1,1.1l0,0c0.1,1.2,0,2.5-1.3,4.4c-1.2,1.7-6.8,6.3-12.1,10.5c-6,4.9-11.5,8.7-14,9.8
							c-1.9,0.8-3.7,0.8-4.4,0.5c-0.5-0.1-0.9,0.1-1.2,0.4c-0.2,0.4-0.2,0.9,0,1.2c1.1,1.3,2.1,2.3,3.1,3.3c0.9,0.9,1.8,1.7,2.6,2.7
							l3.1,4.2c1.8,2.5,3.9,5.5,5.9,7.9c2.9,3.6,3.8,4.4,5.3,4.2c1.8-0.2,5.8-1.1,8.6-2c0.4-0.2,0.6-0.7,0.5-1.2
							c-0.1-0.4-0.4-1-0.9-1c-3.3-0.4-5.3-1.5-9.6-6.8c-2.2-2.7-2.9-4.2-2.4-5.1c0.6-1.1,3.8-4,10.6-9.5c4.7-3.8,10.7-8,12.3-8.9
							c2.3-1.3,3.7-1.1,5.2-0.8c0.2,0,0.8,0.1,1.1-0.8c0,0,0.4-1.2-0.2-1.4c-1.3-1.1-3.2-3.2-5.3-5.8c-2.1-2.6-3.8-5-4.5-6.4
							C396.8,236.2,396.2,236,395.6,236.2z"/>
						<path d="M399.4,269.4c-2.5,1.6-3.8,5.2-1.7,8.5c1,1.6,2.5,2.7,4.1,3c1.6,0.4,3.2,0.1,4.6-0.8c2.6-1.7,4.1-5.2,1.9-8.8
							c-1-1.5-2.3-2.5-3.9-2.9C402.7,268.1,401,268.4,399.4,269.4z"/>
						<path d="M408.8,289c-8.6,3.7-13.6,10.8-14,19c-0.2,3.6,0.5,7.3,2.1,11.1c2.7,6.2,7.3,10.9,13,13.2c5.6,2.2,11.8,2,17.9-0.6
							c6.3-2.7,10.7-6.9,12.9-12.2c2.2-5.4,1.8-11.7-1-18.2c-2.6-6.1-7.2-10.7-12.8-12.9C421.4,286.1,415.1,286.3,408.8,289z
							 M402.6,312.7c0.2-4.8,4.4-9.6,11.4-12.6c5.8-2.5,11-3,14.7-1.5c2.4,0.9,4.1,2.7,5.2,5.2c1,2.4,1.1,4.7,0.2,6.9
							c-1.5,3.7-5.6,7.1-11.8,9.8c-9.2,3.9-16.3,2.6-18.9-3.6C402.8,315.4,402.6,314.1,402.6,312.7z"/>
						<path d="M448.9,335.2L448.9,335.2c-0.5,1.2-1.2,2.2-3.3,3.3c-1.7,0.9-8.1,2.5-15.7,3.9s-14.3,2.2-17,1.9
							c-2.1-0.2-3.4-1.1-3.8-1.6c-0.4-0.4-1.1-0.3-1.6-0.1c-0.5,0.3-0.5,0.6-0.5,0.8c0.3,1.7,0.9,3.3,1.4,4.8
							c0.5,1.4,0.9,2.7,1.2,3.9l0.2,2.8c0.1,1.8,0.2,3.9,0.5,5.5c0.1,0.4,0.4,0.6,1,0.7c0.4,0.1,1,0,1.2-0.4
							c0.5-1.6,1.6-2.9,3.1-3.7c1.6-0.8,6-1.9,11.1-2.8c0.7,4.1,1.3,7.9,1.2,10.6c-0.1,1.4-0.3,2.4-0.8,3.1
							c-0.1,0.1-0.2,0.3-0.2,0.4c0,0.4,0.2,0.8,0.4,1c0.4,0.6,0.9,0.6,1,0.5c1.1-0.4,2.9-0.9,4.1-1.1c1-0.2,3.2-0.3,4.5-0.2
							c0.3,0.1,0.5-0.1,0.7-0.4c0.1-0.2,0.2-0.5,0.2-0.8c0-0.4,0-0.7-0.2-0.9c-1.7-1.3-3-5.2-4.6-13.4c4.5-0.8,11-1.8,13.9-2.2
							c0.1,0.4,0.3,1.2,0.3,1.2l0.8,3.4c0.4,2.1,0.5,4,0.4,5.8c-0.1,2.7-0.9,4.9-2.1,6.4c-0.1,0.2-0.2,0.4-0.2,0.6
							c0,0.3,0.1,0.6,0.3,0.9c0.3,0.4,0.6,0.5,1,0.4c1.6-0.7,3.6-1.3,4.8-1.4c1.1-0.1,2.9-0.3,4.4-0.1c0.3,0.1,0.6-0.1,0.9-0.4
							c0.3-0.4,0.4-0.9,0.2-1.3c-0.8-1.6-2.6-7.9-4.9-20.3c-0.4-2.2-1.4-8.3-1.3-10.2c0-0.4-0.3-0.8-1-1
							C449.8,334.6,449.1,334.7,448.9,335.2z"/>
						<path d="M436.6,377.4c-1.5,0.1-3.1,0.8-4.1,2c-0.7,0.8-1.4,2-1.5,3.8c0,0.2,0,0.5,0,0.8c0.1,1.9,0.9,3.5,2.1,4.7
							c1.2,1.1,2.8,1.6,4.4,1.5c3.1-0.2,6.1-2.6,5.9-6.8C443.2,379.7,440.4,377.2,436.6,377.4z"/>
						<path d="M415.2,392.6c-0.4,0.2-0.7,0.6-0.7,1l0,0l0.1,2.9c0.1,1.9,0.2,3.9,0,6.1c-0.1,1.3-0.4,2.6-0.7,4.1
							c-0.5,2.1-1,4.4-1.2,7.4c-0.7,7.2,1,13.5,4.9,18.2c3.8,4.6,9.5,7.3,16.5,8c6.6,0.6,11.9-0.7,15.6-3.8
							c4.3-3.6,6.8-9.7,7.7-18.7c0.2-2.4,0.3-4.8,0.3-7.2l0.2-5.4c0.1-1.6,0.5-5.4,1.1-7.2c0.2-0.4-0.1-0.9-0.7-1.2
							c-0.5-0.3-1.2-0.4-1.5,0.1c-0.8,1-1.8,1.8-4,2.2c-2.1,0.3-9.1,0.3-16-0.4c-7.7-0.7-14.4-1.8-16.8-2.8
							c-1.9-0.8-3.2-2.1-3.5-2.8C416.1,392.5,415.7,392.4,415.2,392.6z M434.1,428c-10.4-0.9-15.8-5.4-15.2-12.6
							c0.2-2.6,1.1-5.7,2.2-6.1c0.8-0.3,3.3-0.2,13.9,0.8c7.2,0.7,12.4,1.3,16.2,1.9c0.1,1.5,0.1,2.8,0,4c0,0.4,0,0.8-0.1,1.2
							c-0.2,3.2-1.6,5.8-3.8,7.8C444.3,427.4,439.7,428.5,434.1,428z"/>
						<path d="M410.6,437.5c-0.4,0-0.9,0.3-1,0.7l0,0c-0.5,1.6-0.7,3.3-1,4.9c-0.2,1.5-0.4,2.8-0.8,4l-2.1,5.7
							c-1.3,3.3-2.3,5.3-3.2,8.2c-1.4,4.5-1.2,6-0.6,6.8c1.1,1.5,3.1,3,6.8,5.1c0.3,0.2,0.7,0.1,1.1-0.2c0.4-0.4,0.7-1,0.4-1.5
							c-1.7-2.8-2.2-4-0.2-10.7c1.8-5.8,2.7-5.5,3.3-5.5c0.9-0.1,5.9,1.1,10.5,2.5c-1.3,4-3.7,11.5-5.4,12.1
							c-0.4,0.2-0.5,0.7-0.6,1.1c0,0.2,0,0.4,0,0.5c0.1,0.6,0.5,0.8,0.7,0.8c1.3,0,3.1,0.6,4.1,0.9c0.9,0.3,2.2,0.8,3.8,1.6
							c0.1,0,0.4,0.2,0.8-0.2c0.2-0.2,0.5-0.9,0.6-1.3c0-0.1,0-0.2-0.1-0.3c-0.2-0.5-0.3-1.2-0.2-2.4c0.1-2.2,0.8-5.8,2.3-10.9
							c3.9,1.2,8.3,2.8,11.3,3.9c-0.1,0.4-0.3,1.1-0.3,1.1l-1,4c-1.3,4.3-3.7,7.5-6.1,8c-0.4,0.1-0.6,0.5-0.6,1c0,0.1,0,0.1,0,0.2
							c0,0.6,0.3,0.9,0.7,1c1.3,0.3,4.4,1.3,5.4,1.7l1.8,0.9l1,0.6c0.4,0.2,0.8,0.2,1.2,0c0.3-0.2,0.5-0.5,0.5-1
							c0-2,1.3-8.1,4.7-19.3c0.7-2.1,2.7-8.2,3.6-9.8c0.2-0.2,0.2-0.7-0.4-1.2c-0.4-0.4-1.1-0.7-1.5-0.3c-0.9,0.7-2.1,1.4-4.4,1.3
							c-2,0-8.5-1.4-15.7-3.6c-7.4-2.3-13.7-4.7-15.9-6.2c-1.6-1.1-2.7-2.7-2.8-3.5C411.4,437.7,411,437.5,410.6,437.5z"/>
						<path d="M399.7,471.7c-0.3,0.1-0.5,0.3-0.6,0.6v-0.1c-0.8,2-2,3.8-3.2,5.6c-1.1,1.6-2,3.1-3.1,5.1c-4.8,9.4-3.3,17.3,4.1,21.1
							c4.6,2.3,9.5,1.4,15.4-2.8c5-3.7,8.2-5.3,11.2-3.7c1.1,0.6,1.9,1.4,2.2,2.5c0.5,1.4,0.2,3.2-0.7,5c-2,3.9-4.9,5.7-8.2,5
							c-0.3-0.1-0.7,0-1,0.6c-0.2,0.5-0.3,1.5,0.2,1.8l1,0.3l1.9,0.7c2.6,1.3,3.4,2.2,4.4,3.5c0.2,0.4,0.6,0.5,1,0.5
							c0.5-0.1,0.9-0.4,1-0.8c0.4-1.3,1.4-2.8,2.5-4.5c0.9-1.3,1.9-2.9,2.8-4.5c3-5.8,3.7-9.9,2.4-13.9c-0.9-2.8-2.9-5.2-5.5-6.6
							c-5.2-2.7-10.3-2-15.9,2.1c-6.6,4.8-9.2,5-11.9,3.7c-0.9-0.5-1.6-1.2-1.9-2.3c-0.5-1.5-0.2-3.5,0.7-5.3
							c2.1-4.1,5.7-6.1,9.8-5.6c0.5,0.1,0.9-0.2,1-0.7c0.2-0.5,0.1-1.5-0.3-1.7h-0.1h-0.1c-0.8-0.1-2.3-0.9-3.1-1.3
							c-2.6-1.3-4.7-3.9-4.7-3.9C400.7,471.6,400.1,471.6,399.7,471.7z"/>
						<path d="M383.2,501.4l-1.7,2.9l-2.7,4.5c-1.2,1.6-3.5,4.3-5.1,6.1c-0.3,0.4-0.3,0.9,0,1.3c0.3,0.5,0.9,0.9,1.4,0.7
							c0.9-0.4,2.6-1,5-0.1c2.3,0.9,6.6,3.6,13.8,8.7c5,3.5,10.2,7.5,12,9.2c2,1.8,2.3,3.4,2.3,4.6c0,0.3,0.2,0.7,0.8,0.8
							c0.4,0.1,1.5,0,1.6-0.5c0.7-1.6,2-3.7,3.9-6.4c2-2.8,3.9-5.2,5-6.2c0.4-0.3,0.4-0.8,0-1.4c-0.3-0.5-0.8-0.9-1.3-0.7
							c-1.2,0.5-2.4,0.7-4.6-0.1c-1.8-0.7-7.5-4.3-13.6-8.5c-5.5-3.9-12.1-8.8-13.5-10.7c-1.2-1.5-1.1-2.4-1.1-3.3v-0.1
							c0-0.4-0.3-0.8-1-1C384.2,501.1,383.5,501,383.2,501.4z"/>
						<path d="M357.7,532.4L357.7,532.4c-6.3,6.4-8.2,10.2-9.7,13.3l-1.6,2.9l0.2,0.2c2.9,2.8,7.7,7.7,9.3,9.4
							c1.7,2,2.3,3.2,2.3,4.3c0,0.2,0,0.8,1,1c0.3,0.1,1.2,0.2,1.4-0.3v0.1l0.7-1.2c0.5-0.8,0.9-1.6,2.6-3.3c1.9-2,4-3.7,5.6-4.8
							c0.3-0.1,0.5-0.5,0.2-1.2c-0.2-0.6-0.7-1.1-1.2-1c-1.2,0.2-1.8,0.3-3.6-0.6c-1.1-0.5-4.3-3.6-7.6-6.9c0.3-1.3,0.8-3,3.2-5.4
							c2.3-2.4,5.1-3.6,8.3-3.6c4.6-0.1,9.6,2.3,14,6.6c3.5,3.4,5.3,6.9,5.3,10.4c0,3.3-1.4,6.5-4.3,9.4c-5,5.2-8,5.7-12.8,4.9
							c-0.6-0.1-1,0.8-1.1,1c-0.3,0.8,0,1.1,0.1,1.2c1.6,0.9,5,5.4,6,7.4c0.1,0.3,0.4,0.5,0.7,0.6c0.3,0.1,0.7,0,0.9-0.3l1.7-2.2
							l3.7-3.5l4.8-4.6c6-6.1,8.9-12.3,8.8-19c-0.1-5.7-2.6-11-7.6-15.9C379.5,522.3,367.2,522.6,357.7,532.4z"/>
						<path d="M340,549.4L340,549.4l-1.3,1.3c-1.1,1.1-2.2,2.1-3.6,3.1l-3.4,2l-1.5,0.8c-0.5,0.3-0.2,1.2-0.2,1.3
							c0.2,0.5,0.5,0.8,0.9,0.8c1.4,0.1,2.4,0.4,3.1,0.9c1.7,1.3,5.8,6.8,13.1,17.6c-1.6-0.3-16.4-3-16.4-3l-8.4-1.5
							c-4.8-0.9-9.8-1.8-14.1-2.5c-0.6-0.1-1.4,0.6-1.7,1c-0.4,0.4-0.5,0.9-0.3,1.2c1.9,3.5,3.8,6.7,5.8,10l4.7,7.9
							c5.1,8.9,8.1,14.1,8.9,16.5c0.4,1.2,0.2,2.8-0.1,3.2c-0.3,0.5,0.2,1.2,0.5,1.5c0.5,0.5,0.8,0.4,1,0.3l0.4-0.3
							c2.2-1.6,6.2-4.5,10.1-6c0.2-0.1,0.5-0.3,0.4-1c0-0.3-0.2-1.2-0.8-1.3c-1,0-2.6-0.5-3.4-1.2c-1.5-1.4-5.3-7.2-11.5-17.8
							c3.6,0.4,7.3,1.1,14.8,2.5c8.4,1.5,14.1,3.2,20.1,5.3l0.2,0.1l0.2-0.2c2.6-2.6,6.7-5.8,9.8-7.8c0.4-0.2,0.4-0.7,0.1-1.4
							c-0.2-0.4-0.5-0.9-1-0.8c-1.2,0.3-2.2,0.4-2.8,0.2c-2.3-0.4-5.2-3.6-12.5-13.6c-4.8-6.6-8.4-12.4-9.4-14.8
							c-0.3-0.9-0.2-1.6,0.1-2.6c0.1-0.4,0-0.8-0.4-1.2C341.1,549.3,340.4,549.1,340,549.4z"/>
						<path d="M133.8,581.3c-1.5,0.6-2.6,1.7-3.3,3.3c-0.3,0.6-0.4,1.2-0.4,1.9c0,0.8,0.1,1.6,0.4,2.4c0.4,1,1.2,2.4,3.1,3.2
							c3.2,1.4,6.5,0.3,7.8-2.8c0.7-1.5,0.7-3.1,0.2-4.5s-1.7-2.5-3.2-3.2C136.8,580.9,135.2,580.8,133.8,581.3z M125.6,599.8
							c-1.4,0.6-2.6,1.7-3.3,3.3l0,0c-1.1,2.6-0.3,6.1,3.1,7.6c3.2,1.4,6.5,0.3,7.9-2.8c0.7-1.5,0.7-3.1,0.2-4.5s-1.7-2.5-3.3-3.2
							C128.6,599.3,127,599.2,125.6,599.8z"/>
						<path d="M166.9,584.2L166.9,584.2c-1.8,0.7-4,1-6.7,1.1c-2.9,0.1-5.7-0.2-7.8-0.3c-0.6,0-1,0.5-1.1,1.1
							c-0.1,0.5,0,0.9,0.3,1.1c1.2,0.6,1.8,1.7,1.9,3.6c0.2,1.3-1.2,6.9-3.3,14c-2.1,6.8-4.1,12.2-5.4,14c-1,1.6-1.9,2-2.7,2.2
							c-0.6,0.2-0.7,0.8-0.7,1.4c0,0.6,0.2,1,0.6,1.1l3.2,0.7l5.2,1.2c1.8,0.6,4.7,1.8,7.2,2.9c0.4,0.2,0.9,0,1.3-0.4
							c0.3-0.4,0.6-1.1,0.2-1.6c-1-1-1.5-2.6-1.4-4.6c0.1-2.7,1.6-8,3.9-15.8c2.8-9.2,5.1-15.7,6.9-20c0.2-0.3,0.1-0.7-0.2-1
							C168,584.3,167.4,584,166.9,584.2z"/>
						<path d="M183.3,592.9c-2.7,2.1-4.3,4.9-4.6,8c0,0.4-0.1,0.7-0.1,1c-0.2,4.8,2,7.5,4.6,9.7c-4.9,2.3-8.2,6.1-8.6,10.2
							c0,0.3-0.1,0.6-0.1,0.9c-0.3,6.7,4.8,11.3,13.9,12.4c13.2,1.6,20.9-4.6,21.7-11.5c0-0.3,0.1-0.7,0.1-1c0.2-4.6-1.9-8-6.9-11.2
							c3.8-1.7,7.5-4,8-8.2c0-0.3,0.1-0.6,0.1-0.9c0.4-6.9-5.1-11.6-14.8-12.8C191.7,588.9,186.8,590.2,183.3,592.9z M189.1,599.5
							c0-0.1,0-0.3,0-0.4l0,0c0.2-1.6,0.9-2.9,2-3.8c1.3-1,3-1.4,5-1.2c5,0.6,6.6,4,6.4,7.3c0,0.2,0,0.4-0.1,0.6
							c-0.2,2-2,4.8-5.4,6.2C191.5,605.7,189,603,189.1,599.5z M184,622.4c0-0.2,0-0.4,0-0.6c0.3-2.9,2.1-5.5,4.4-6.7
							c3.4,1.4,10.7,4.7,10.4,9.1c0,0.1,0,0.2,0,0.3c-0.4,3.8-3.7,6.1-8,5.6C186.6,629.7,183.8,626.4,184,622.4z"/>
						<path d="M246.5,589.9L246.5,589.9c-1.1,0.4-6.1,1.2-11.8,1.7c-6.4,0.5-10.9,0.3-13.5-0.7c-0.4-0.1-0.9,0.1-1.2,0.4
							c-0.2,0.2-0.4,0.5-0.3,0.8c0.2,1.9,0.1,6.6-1.3,10.6c-0.1,0.3,0,0.6,0.5,0.8c0.4,0.2,1.4,0.3,1.7-0.2
							c1.8-2.7,4.1-3.7,13.8-4.5c-1.9,14.2-4.9,25.9-6,28.8c-1.1,3.1-3.2,6.1-4.8,7c-0.2,0.2-0.3,0.4-0.3,0.6c0,0.2,0,0.4,0.1,0.6
							c0,0.1,0.4,0.9,0.9,0.8c4-0.7,8.2-2.4,10-4.1c3.2-3,5.6-8.2,7.4-15.4l2.1-8.6c1.3-5.7,2.6-11.1,4.4-17.4
							c0.1-0.3,0-0.6-0.3-0.9C247.5,589.8,246.9,589.7,246.5,589.9z"/>
						<path d="M279.9,581.9L279.9,581.9c-1,0.6-5.8,2.2-11.3,3.7c-6.2,1.6-10.7,2.1-13.5,1.7c-0.4,0-0.9,0.3-1.2,0.6
							c-0.2,0.3-0.3,0.6-0.2,0.8c0.5,1.9,1.2,6.5,0.6,10.7c0,0.3,0.1,0.6,0.6,0.7c0.5,0.1,1.4,0.1,1.7-0.5c1.3-3,3.4-4.4,12.8-6.8
							c0.3,7.9,0.2,15-0.1,20.4c-0.2,4.4-0.6,7.6-0.8,9c-0.6,3.3-2.1,6.6-3.5,7.7c-0.1,0.1-0.2,0.3-0.2,0.5s0.1,0.4,0.2,0.7
							c0.1,0.1,0.5,0.8,1,0.7c3.8-1.4,7.6-3.8,9.2-5.7c2.6-3.5,4.1-9,4.6-16.5l0.5-8.9c0.3-5.9,0.7-11.4,1.4-17.9
							c0-0.3-0.1-0.6-0.4-0.8C280.9,581.7,280.3,581.7,279.9,581.9z"/>
						<path d="M292.8,583.1L292.8,583.1c-1.6,0.7-2.7,1.8-3.3,3.2c-0.6,1.4-0.5,3.1,0.1,4.7c0.5,1.3,1.7,2.4,3.1,3
							c1,0.4,2.6,0.7,4.5-0.1c1.6-0.7,2.8-1.8,3.4-3.3c0.6-1.4,0.5-2.9-0.1-4.4C299.5,583.6,296.6,581.5,292.8,583.1z M300.7,601.7
							c-1.6,0.7-2.7,1.8-3.3,3.2c-0.2,0.6-0.4,1.2-0.4,1.8c0,0.9,0.1,1.9,0.5,2.8c1.1,2.6,4.2,4.4,7.6,3c3.3-1.4,4.6-4.5,3.3-7.7
							C307.3,602.1,304.4,600.1,300.7,601.7z"/>
					</g>
				</g>
				<path class="st0" d="M104.8,581.2c-3-3-5.7-4.4-8.6-4.4c-2.2,0-7.1,4.6-7.4,9.4c-0.3,5.4,3.5,7.4,6.7,8.8
					C98,591.2,104.3,582.3,104.8,581.2z"/>
			</g>
			<path d="M269.4,350.7c-5.8,8.3-9.2,10.6-11.7,12.8c0-3.4-6.2-8-13.3-8c-5.9,0-11.6,2.7-11.7,9.7c-0.1,11.2,5,15.4,14,25.3
				c10.6,11.2,17.9,19.3,17.8,28.3c-0.1,18.9-21.3,34.6-39.2,34.5c-3.5,0-10.1-1.2-12.5-2.8c0-6.4,4.6-13.9,8.8-18.7
				c1.6,4.8,8.6,9.7,18.2,9.7c5.5,0,12.1-4.2,12.2-11.3c0-6.5-7.1-15.9-17.5-26.7C224.4,393.3,219,385.8,219,376
				c0.1-19.4,20.4-31.6,37.2-31.5C262.4,344.6,267.6,347.5,269.4,350.7z M204.3,439.2c-1.2,5.7-3.3,8.3-8.8,11.3
				c-2.7,1.5-11.3,1.7-28,1.7c1.8-3.2,3.4-7.7,4.5-11.7c1.2-5.6,2.8-13.5,6-36c3.3-23.6,5-36.2,6.3-46.2c-4.8-0.2-11-0.1-15,0.7
				c2.1-3.4,7.9-9.2,10.2-10.3c2.2-1.1,6.5-2.5,24.7-2.5c-2.8,7.8-6.3,26.8-9.7,50.8c-3.3,23.9-4.4,30.9-5.8,43.7
				C193.4,440.8,200.6,440.9,204.3,439.2z M102.8,393.9c2.8,0.7,5.8,0.5,9,0.5c3.7,0,8.5-0.8,11.7-2.3c6.9-3.7,11.6-11.2,11.7-20.7
				c0.1-10.1-7.4-17.8-26.3-17.9C107,366.2,104.4,381.8,102.8,393.9z M309.7,493.6c0-7.2-6.8-11.9-16.3-11.9
				c-9.9,0-19.4,2.5-25.5,4.4c5.9,5.1,12.7,14.4,12.6,24.7c0,0.5,0,2.2-0.1,3.6C294.9,512,309.6,504.7,309.7,493.6z M204.6,507
				c6.7-3.2,13-5.9,21.2-9.7c-4-5.6-9.8-8.9-19.1-8.9c-8,0-13.4,1.4-18.8,4.6C193.5,499.4,197.9,503.3,204.6,507z M228.6,514.7
				c0.4-1.3,0.8-2.5,0.8-5c0-2.7-0.4-4.5-1.2-7.2c-6.1,2.9-11.6,5.4-17.1,7.6C216.8,512.6,221.2,513.6,228.6,514.7z M157.5,516.7
				c0-9.3,4.9-15.8,13.2-21.6c-6.4-6.1-11.8-12.8-17.1-21.4c-15.5,4.7-26.1,13.1-26.1,24.4c0,7.2,3.8,21.1,24,21.2
				c1.6,0,3.9-0.2,5.9-0.1C157.4,518.5,157.5,517.3,157.5,516.7z M174.7,516.4c7.5-1.5,11.4-3.3,19.6-6.2
				c-6.3-2.9-10.1-5.4-15.6-9.7C176,504.2,173.8,510.7,174.7,516.4z M183.3,487.7c7.4-2.7,15.3-4.3,23.8-4.3
				c12.5,0.1,22.4,3.9,28.8,9.5c5.6-2.4,9.7-4.1,14.9-6.3c-11.6-11.8-30.4-18.8-57-18.9c-8,0-15.2,0.7-22.9,1.8
				C175.9,477.2,179.2,482.1,183.3,487.7z M251,516.6c4.3,0,8-0.1,12-0.1c0.6-9.4-2.6-18.2-8.1-25.4c-5.6,2.1-9.4,3.7-14.9,6.3
				c3.4,4,4.9,8.2,4.9,12.5c0,2.7-0.4,4.6-0.9,6.3C246.6,516.4,248.4,516.6,251,516.6z M175.4,522.6c2.4,12.4,19.8,25.7,43.6,25.8
				c24.2,0.1,39-12.3,43.3-26.3c-4,0.2-7,0.2-11.3,0.2c-3.5,0-7-0.1-10.7-0.4c-4,6.1-12.6,9.7-22.7,9.7c-5.9,0-12.4-3.1-15.1-7.2
				c-0.4-0.6,0.1-2,0.9-1.6c2.8,1.8,5.5,2.5,9.3,2.5c4.1,0,9.6-1.6,12.3-4.8c-8.8-1.4-15.7-3.4-23.7-6.3
				C193.2,517.4,186.3,519.7,175.4,522.6z M309.4,396.1c-2.5,23.9-3.6,34.2-4.2,43c15.5,2.2,31,1.3,39.5-6.7
				c7.4-6.9,13.9-23.1,14-38c0.1-12.5-2.4-21.8-8.5-28.2c-8.5-8.8-14.7-10.3-36-10.7C312.6,367.5,310.8,384.6,309.4,396.1z
				 M328.7,327c6.1,0,14.8-4.2,14.8-10.6c0-2.9-3.3-5.7-7.3-5.7c-7.7,0-14,4.4-16.8,15.4C322.9,326.6,325.2,327,328.7,327z
				 M193.7,269.8c0,9.3,3.7,14.6,10.4,19.4c4.5-3.7,9.3-7.8,14.6-11.8C209.9,273.4,193.7,269.8,193.7,269.8z M152.2,291.5
				c9.6,0,20.4,3.1,35.5,11.2c3.7-2.6,5.7-4.7,10-8.1c-12.7-6.2-20.5-14.7-20.9-26.1c-12.7-0.1-22.1,2.4-29.2,6.2
				c-8.3,4.4-13.5,11.7-14.3,20.4C139.7,293,145.3,291.5,152.2,291.5z M151.7,296.7c-6.1,0-12,1.3-18.6,4.5
				c1.3,11.2,9.3,20.4,20.2,20.5c7.7,0,13.8-2.6,28.3-14C170.7,301,161.9,296.7,151.7,296.7z M115.9,298.3
				c0.1-17,21.9-35.4,60.7-35.3c2.2-14.6,23.3-23.2,43.8-23.1c21,0.1,42.3,10.1,54.3,20c29.3,0.1,48.4,14,48.4,25.1
				c0,5.1-4.9,9.9-12.9,9.9c-2.9,0-6.5-2.3-6.5-4.8c4.3-1.4,7.4-3.8,7.4-7.5c0-10.9-10.6-16.9-30-17c8.5,8.6,15.8,20.4,15.7,36.4
				c0,5.3-1.1,10-3.6,13.9c6.4,3.8,10.6,5.5,16.3,7.4c5.9-10.6,16.2-17.2,27.9-17.2c11.7,0.1,18,4.2,18.1,11.2
				c0.1,6.1-11.1,14.3-24.9,14.2c-4.8,0-7.5-0.1-12.1-0.4c-1.1,5.3-1.8,8.4-2.7,14.5c21.8-0.2,39,0,49.8,11
				c7.1,7.2,10.1,17.4,10,28.8c-0.1,18.4-9.9,38-23.7,49.7c-13.1,11.2-20.6,17-55.5,17c-5.6,0-10.6-0.5-13.5-0.8
				c2.9-3.4,3.1-5.6,4.5-10.3c1.6-7.2,3.8-21.2,6.8-45.7c1.9-16.5,3.5-28.8,5.2-40c-10.6,0.2-13.2,0.9-16.7,3
				c-2.4,1.3-4.3,4.2-4.2,7.2c0.1,2.4,1.4,5,2.5,6.3c-2.7,3.2-9.4,7.7-12.8,9.8c-1.3-1.6-3.8-6.3-3.8-9c0-5.1,4.1-11.1,11.8-17.2
				c7.5-5.8,14.2-8.8,24.8-9.5c1.6-8.2,3.8-11.7,5.4-16.9c-6.4-1.9-10.3-3.7-17.5-7.4c-7.8,8.5-21.4,12.2-32.6,12.2
				c-20.7-0.1-42.3-6.8-62.9-19.4c-13.6,8.7-25,12.5-40.2,12.4c-16.2-0.1-27.3-5.8-32.9-14.3c-6.4,10.6-8,19.6-10.2,31.1
				c19.3,0.1,29.8,1.8,35.3,6.8c2.8,2.6,5.5,7.4,5.5,11.7c-0.1,14.4-8.4,24.2-22.5,34.5c8.4,14.1,27.2,47.3,39.6,67.9
				c8.3-1,16.6-1.5,26.4-1.4c22.1,0.1,51.4,5.9,68.9,19c13.3-4.5,25.3-7.5,34.6-7.4c19.7,0.1,30.6,5.7,30.6,14.5
				c-0.1,14.4-20.8,27.2-49.2,31.2c-7.1,22.5-39.3,33.9-62.4,33.8c-33.2-0.2-54-12.8-58.4-29.1c-1.6,0.3-4.9,0.4-6.8,0.4
				c-24.5-0.1-42-11.3-41.9-26.1c0.1-14.4,14.2-26.2,40.3-31.6c-16.9-27.7-30.1-51-37.8-63.3c-3.7,0-9.7,0.2-11.3,0.2
				c-2.2,15.9-3.6,28.2-5,37c5.1,0,8.3,0,13.7-1c-1.1,3.5-6.4,9.1-9.7,11c-2,1.1-7.2,1.5-12.7,1.7c-5.7,0-11.3-0.1-13.9-0.2
				c2.2-3,4.7-7.6,5.9-11.5c1.3-4,3.9-21.8,7.3-44.2c3.5-22.6,5.3-34.9,6.7-44.7c-7.4,0-11.5,0.5-14.2,2.5c-2.2,1.6-3.3,5-3.3,9
				c0,1.6,0.5,3.5,1,4.8c-3.2,2.1-9.4,5.3-13.2,7.2c-1-1.3-2.3-4.1-2.3-7.3c0-3.2,1.4-7.8,5.5-11.7c7.7-7.3,17.7-11.1,27.8-12.7
				c3.8-18.1,11.1-30.9,22-39.6C116.3,302.8,115.9,300.7,115.9,298.3z M231.6,284c-5.3,3.7-8.9,7.3-13.8,11.3
				c4.8,1.4,8.5,1.6,13.3,1.6c6.6,0,11.4-1.9,13.9-4.3C239.3,288.7,236.3,287,231.6,284z M199.6,309.7c17.5,9.7,32.9,16.7,46.4,16.8
				c10.1,0,20.5-4.8,28.7-13.1c-6.4-4.3-13.3-9.4-19.9-14.2c-4.3,2.4-9.3,3.8-15.4,3.8c-9.3,0-18.2-1.2-26.8-3.4
				C207.6,303.9,204.2,306.6,199.6,309.7z M233.1,261.3c-0.8-0.3-1-1,0-1.3c4.5-1.1,12.1,0.7,16.4,2.9c5.9-1.6,9.4-2,15.5-2.4
				c-12.4-8.5-26-13.3-41.5-13.3c-13.6,0-27.4,6.5-29.1,17.3c10.9,2.5,19,5,29.1,9.6c5.4-3.4,12-6.6,18.6-9
				C239.4,263.3,237.3,262.1,233.1,261.3z M264.7,285.4c-0.1,3.7-0.8,6.3-4,9.3c6.9,4.8,12.5,8.8,18.6,13.1c3.7-5.3,5-10.6,5-17.5
				c0-9.3-7.6-20.8-11.9-24c-5.9,0.5-9.3,0.9-14.9,3C262.7,274.4,264.8,280.5,264.7,285.4z M251.3,280.2c-0.1-2.6-0.3-4.3-1.6-7.5
				c-3.5,1.6-10,5.8-13.1,7.8c3.6,2,8.2,4,13,7.3C251.2,285,251.4,282.9,251.3,280.2z"/>
		</g>
	</g>
	<g>
		<g>
			<path class="st1" d="M220.7,135.6C76.2,134.8-41.6,251.5-42.3,396S73.6,658.3,218.1,659s262.3-115.9,263-260.4
				C481.9,254,365.2,136.3,220.7,135.6z M218.2,647.1c-138-0.7-249.3-113.1-248.6-251c0.7-138,113.1-249.3,251.1-248.6
				S470,260.6,469.3,398.6C468.6,536.5,356.2,647.8,218.2,647.1z"/>
			<path class="st1" d="M220.3,213.9C119,213.4,36.6,295.1,36.1,396.3C35.6,497.6,117.3,580,218.5,580.5
				c101.3,0.5,183.7-81.2,184.2-182.4C403.3,296.9,321.6,214.4,220.3,213.9z M218.6,567.7c-94.1-0.5-170-79.8-169.6-171.3
				c0.5-96.8,77.1-170.1,171.3-169.6c94.1,0.5,170.1,74.5,169.6,171.3C389.4,489.6,312.7,568.2,218.6,567.7z"/>
			<g>
				<g>
					<path class="st1" d="M153,182.2c-1.7,0.6-3,1.6-3.8,3.1c-0.7,1.5-0.8,3.3-0.3,5c0.9,2.8,4.1,5,7.9,3.8c3.6-1.2,5.4-4.5,4.3-7.9
						c-0.5-1.7-1.6-3-3.1-3.7C156.5,181.7,154.8,181.6,153,182.2z"/>
					<g>
						<path class="st1" d="M77,562.1c5.3-5.6,11-10.6,11.8-11.3c0.7-0.6,2.1-1.6,3.2-1.5c1.1,0.1,1,2.2,1.1,3c0.1,6.3,0,11.2,0,16.6
							c0,0,0,2.4,0,3c-4.2,0.2-9.4,1.1-12.7,6.2c-1.2,1.9-1.8,3.7-1.9,5.5c-0.2,4.4,2.9,8.6,9.4,12.8c2,1.3,4.2,2.5,6.3,3.7l4.6,2.7
							c2.5,1.6,4.2,2.9,5.1,3.9c0.4,0.4,1,0.3,1.5,0s0.7-0.8,0.5-1.2c-0.5-1.1-0.5-2.4,0-4.3c0.5-1.5,4.1-7.9,8.2-14.2
							c3.7-5.6,8.2-12.3,10-14c1.8-1.5,3.3-1.5,3.7-1.4c0.5,0,0.9-0.3,1-0.7s-0.1-1-0.4-1.2c-1.5-0.9-2.9-1.6-4.2-2.2
							c-1.1-0.5-2.2-1-3.2-1.6c-1.1-0.7-2.2-1.7-3.3-2.7c-1-1-2.1-2-3.2-2.7c-0.4-0.3-0.9-0.1-1.4,0.4c-0.2,0.3-0.3,0.5-0.3,0.8
							c0,0.2,0.1,0.4,0.2,0.6c0.9,0.9,1.1,2,1,2.8c0,0.4-0.1,0.7-0.2,0.8c-0.8,2-3.2,5.9-6.1,10.8c-0.5-0.4-3.2-2.3-3.4-2.4
							c-0.2-1.5-0.1-4.5,0.1-7.8c0.2-4.2,0.4-8.6-0.1-10.7c-0.5-2.5-11.9-10.2-11.9-10.2c-1-0.7-3-2.3-3.8-3.2
							c-1.1-1.1-2-2.3-2.9-3.4l-2.5-2.9c-0.3-0.3-0.9-0.2-1.4,0.1c-0.4,0.3-0.6,0.6-0.6,0.9c0,0.1,0,0.2,0.1,0.3
							c0.2,0.4,0.2,0.9,0.2,1.4c-0.1,1.1-0.5,2.4-0.8,2.9c-0.9,1.8-3.1,4.3-8.9,10c-0.5-0.5-6.9-6.9-6.9-6.9s-6.1-6.4-6.5-6.9
							c1.9-1.9,9.2-8,10.5-8.9c1.2-0.9,2.7-1.2,3.6-0.9h0.1h0.1c0.6,0,1-0.9,1.1-1.2c0.2-0.6,0-0.9-0.2-1c-1.5-1.1-4.3-3.4-5.8-5.1
							c-1.1-1.3-2.2-2.7-3.1-4l-1.1-1.5c-0.3-0.4-0.8-0.5-1.4-0.2c-0.5,0.2-1.1,0.8-1,1.4v0.1v0.1c0.2,0.3,0,2-0.5,3.1
							c-0.8,1.8-5.4,6.7-12.6,13.3c-4,3.6-9.9,8.6-11.9,10c-1.4,1-2.1,1-3.4,0.9H32c-0.4,0-0.8,0.3-0.9,0.7
							c-0.2,0.4-0.1,1.1,0.3,1.5l1.6,1.4c1.2,1,2.4,2,3.4,3.1l1.1,1.4l3.2,4.1c0.3,0.4,0.8,0.5,1.2,0.3c0.5-0.2,0.8-0.6,0.8-1v-0.1
							c0-0.3,0-0.5,0-0.8c0-0.9,0.4-1.7,1-2.7c0.8-1,6.7-6.8,9.6-9.5c1.9,1.6,3.5,3.4,5.1,5.1l1.6,1.7c2,2.1,5.6,5.8,7,7.4
							c-3.2,3.2-8,7.6-10.5,9.4c-1,0.8-2.5,0.8-3.1,0.8c-0.5-0.1-0.8,0.2-1,0.6c-0.2,0.4-0.2,1,0.3,1.4l1.9,1.6
							c1.2,1,2.5,2.1,3.8,3.4l0.6,0.5c1.4,1.4,3.1,2.9,4,4.3c0.4,0.5,1.1,0.4,1.6,0.2c0.4-0.2,0.7-0.5,0.6-0.9
							c-0.1-1.4-0.2-2.5,0.7-4C67.2,572.4,72.9,566.4,77,562.1z"/>
						<path class="st1" d="M18.5,486.6c-11.8,7.8-14.1,20.1-6.2,32.1c3.7,5.5,9,9.2,14.9,10.4c6,1.2,12.1-0.2,17.8-3.9
							c5.4-3.6,8.9-8.6,10.1-14.3c1.2-5.8-0.2-12.1-3.8-17.5c-3.8-5.6-9.2-9.4-15.2-10.6C30.2,481.5,24.1,482.9,18.5,486.6z
							 M16,509.7c0.3-5.5,6-10.3,10-13c8.3-5.5,15.5-5.5,19.3,0.1c1.4,2.1,1.9,4.5,1.4,7c-0.8,4-4,8.1-8.9,11.3
							c-8.8,5.8-16.3,5.8-20.2,0C16.4,513.3,15.9,511.4,16,509.7z"/>
						<path class="st1" d="M3,437.7L3,437.7c-6.2,2.2-10.5,5.6-12.6,10c-2.4,5.1-2.1,11.7,0.9,20.2c0.8,2.2,1.8,4.5,2.7,6.7l2.1,5
							c0.5,1.5,1.8,5.1,2,7c0,0.5,0.5,0.8,1.1,0.8s1.2-0.2,1.3-0.7c0.3-1.3,0.9-2.4,2.7-3.7c1.8-1.2,8.1-4,14.7-6.4
							c7.3-2.6,13.8-4.4,16.5-4.5c2.1-0.1,3.8,0.6,4.3,1.1c0.5,0.3,1,0.3,1.4-0.1c0.3-0.3,0.4-0.8,0.2-1.2l-1.3-2.6
							c-0.9-1.7-1.8-3.5-2.6-5.5c-0.4-1.2-0.7-2.5-1.1-4.1c-0.5-2.1-1-4.4-2-7.3c-2.4-6.9-6.6-11.9-12.1-14.5
							C16,435.5,9.6,435.4,3,437.7z M-2.8,465.9L-2.8,465.9c-0.6-1.6-0.8-3.2-0.8-4.7c0.1-1.4,0.4-2.7,1-4c1.7-3.6,5.4-6.5,10.7-8.4
							c9.9-3.5,16.6-1.7,19,5.1c0.6,1.7,1.1,3.8,1,5.1c0,0.6-0.2,1.1-0.4,1.3c-0.6,0.6-2.9,1.5-13,5.1c-6.9,2.5-12.1,4.1-15.5,5.1
							C-1.7,468.8-2.3,467.3-2.8,465.9z"/>
						<path class="st1" d="M13.7,396.2c-0.1,0.2-0.1,0.4-0.2,0.6c0,0.3,0.1,0.7,0.4,0.9l0,0c2.6,1.9,3.7,3.7,4.4,10.6
							c0.2,2.2,0.3,3.8,0.2,4.9c-0.1,2-0.5,2.6-0.9,2.8c-0.8,0.5-5.8,1.3-10.6,1.8c-0.3-2.8-0.7-7.2-0.5-10.2c0.1-1.5,0.3-2.6,0.7-3
							c0.1-0.2,0.2-0.4,0.2-0.6c0-0.4-0.2-0.9-0.3-1.1c-0.4-0.5-0.8-0.5-0.9-0.4c-1.2,0.5-3.1,0.7-4.1,0.8c-0.9,0.1-2.4,0.1-4.1,0
							c-0.1,0-0.4,0-0.6,0.4c-0.1,0.1-0.1,0.4-0.1,0.6c0,0.4,0,0.9,0.3,1.1c1,1,2.4,5,3.3,13.1c-4,0.4-8.7,0.7-12,0.9
							c-0.1-0.4-0.2-1.1-0.2-1.1l-0.6-4.1c-0.1-1.1-0.1-2.1-0.1-3.1c0.2-3.1,1.1-5.5,2.6-6.7c0.2-0.1,0.3-0.4,0.3-0.6
							c0-0.3-0.1-0.5-0.2-0.8c-0.3-0.5-0.6-0.7-1-0.6c-1.3,0.2-4.5,0.5-5.7,0.6l-2-0.2l-1.2-0.2c-0.5,0-0.8,0.2-1.1,0.5
							c-0.2,0.3-0.2,0.7-0.1,1.1c0.8,1.9,2,8,3.2,19.7c0.2,2.2,0.7,8.6,0.5,10.4c-0.1,0.3,0.1,0.7,0.8,1c0.6,0.2,1.3,0.2,1.5-0.3
							c0.6-1,1.4-2.1,3.5-2.9c1.9-0.8,8.4-2.1,15.8-2.8c7.7-0.8,14.4-1,17.1-0.5c1.9,0.4,3.5,1.5,4,2.1c0.4,0.4,0.8,0.5,1.2,0.3
							c0.4-0.2,0.7-0.6,0.6-1c-0.2-1.7-0.6-3.3-1-4.9c-0.4-1.4-0.7-2.8-0.9-4l-0.3-6c-0.1-3.5-0.3-8-0.6-11c-0.5-4.7-1.2-6-2.1-6.4
							c-1.6-0.9-4-1.5-8.3-2.1C14.3,395.6,13.9,395.8,13.7,396.2z"/>
						<path class="st1" d="M-3.3,379.9c-1.2,1.1-1.9,2.7-2,4.6l0,0c-0.1,1.8,0.4,3.4,1.5,4.6s2.7,2,4.6,2.1c3,0.2,6.1-2,6.4-5.9
							c0.1-1.9-0.5-3.6-1.6-4.9c-1.1-1.2-2.6-1.9-4.2-2C-0.5,378.2-2.1,378.8-3.3,379.9z"/>
						<path class="st1" d="M-15.2,353.3c-0.4,0.1-1.3,0.6-1.2,1.2v-0.1c0.1,1.8-0.1,4.3-0.6,7.6c-0.5,3.4-1.1,6.4-1.7,7.8
							c-0.2,0.4,0.1,0.9,0.6,1.3c0.5,0.3,1.1,0.4,1.5,0c0.8-1,1.9-1.7,4.1-2c2-0.2,8.7,0.4,16,1.5c6.7,1,14.8,2.4,16.9,3.4
							c1.7,0.8,2.1,1.7,2.5,2.5l0.1,0.1c0.2,0.4,0.6,0.5,1.3,0.5c0.3,0,1-0.2,1.1-0.7l0.2-3.3l0.4-5.3c0.3-1.9,1.1-5.2,1.8-7.7
							c0.1-0.5-0.1-0.9-0.6-1.2c-0.5-0.3-1.2-0.4-1.6,0c-0.6,0.8-1.9,2.1-4.4,2.4c-2.5,0.2-7.5-0.3-16.2-1.5
							c-6.1-0.9-12.5-2.2-14.9-2.8c-2.6-0.7-3.6-2-4.1-3.1C-14.3,353.4-14.6,353.1-15.2,353.3z"/>
						<path class="st1" d="M-5.8,317c-0.4,0.2-0.8,0.6-0.8,1l0,0c-0.1,1.4-0.8,3.1-1.6,5c-0.6,1.5-1.3,3.2-1.9,5
							c-1.8,6.3-1.7,10.4,0.3,14.1c1.4,2.6,3.9,4.6,6.7,5.4c5.7,1.6,10.5,0,15.2-5.1c5.5-6,8.1-6.7,10.9-5.9c1,0.3,1.8,0.9,2.3,1.9
							c0.8,1.4,0.9,3.4,0.4,5.3c-1.3,4.4-4.5,7.2-8.6,7.5c-0.5,0-0.8,0.3-0.9,0.9s0.2,1.5,0.7,1.6H17h0.1c0.8,0,2.4,0.4,3.3,0.7
							c2.8,0.8,5.4,2.9,5.4,2.9c0.5,0.3,1.1,0.3,1.5,0.1c0.3-0.2,0.5-0.4,0.5-0.7c0.4-2.1,1.2-4,2.1-6.1c0.7-1.8,1.5-3.6,2.1-5.7
							c2.9-10.1-0.1-17.6-8.1-19.9c-4.9-1.4-9.6,0.4-14.5,5.8c-4.2,4.6-7,6.8-10.3,5.8c-1.2-0.4-2.1-1-2.7-2.1
							c-0.7-1.3-0.8-3.1-0.3-5c1.2-4.3,3.7-6.5,7.1-6.5c0.3,0,0.7-0.1,0.8-0.8c0.1-0.6,0-1.5-0.6-1.7l-1-0.2l-2-0.4
							c-2.8-0.8-3.8-1.5-5-2.6C-5,317-5.4,316.8-5.8,317z"/>
						<path class="st1" d="M40,296.8c-0.4,0.3-0.7,0.7-0.5,1.2l0,0c1.2,3.5,1.8,4.6-0.4,9.6c-1.4,3.1-2.1,3.4-3.2,3.4
							c-1.3-0.1-5.2-1.7-13.1-5.5c-5.4-2.6-11.8-6.2-13.3-7.3c-2.1-1.6-2.6-2.9-2.9-4.4c0-0.2-0.3-0.7-1.2-0.6c0,0-1.2,0.2-1.2,0.8
							c-0.5,1.6-1.5,4.2-3,7.3c-1.5,3-2.9,5.6-3.9,6.8c-0.3,0.3-0.2,0.9,0.2,1.4c0.4,0.4,1,0.8,1.4,0.5c1-0.6,2.3-1.1,4.5-0.7
							c2,0.4,8.6,3.5,14.7,6.4c7,3.3,12.8,6.7,14.8,8.5c1.5,1.4,2.3,3,2.3,3.7c0.1,0.5,0.5,0.8,0.9,0.9c0.4,0,0.9-0.2,1.1-0.5
							c0.7-1.5,1.2-2.9,1.7-4.2c0.4-1.2,0.8-2.3,1.4-3.5l2.1-4.2l3-6c2-4.1,2.4-5.4,1.6-6.6c-0.9-1.5-3.4-4.8-5.5-7
							C40.9,296.4,40.4,296.5,40,296.8z"/>
						<path class="st1" d="M28.3,251.5c-1,2.4-4.1,7.2-6,9.7l-0.2,0.3l0.2,0.2c3.7,4.4,8.3,10.6,14.9,19.8
							c5.5,7.5,9.5,13.5,10.2,14.9c0.4,0.7,0.5,1.3,0.6,2.2c0,0.4,0.4,0.7,1,0.7c0.2,0,1,0.1,1.2-0.4c0.6-1.5,1.8-3.4,2.6-4.6
							c0.9-1.3,1.5-2,2.7-3.1c0.4-0.3,0.2-1,0-1.4c-0.3-0.5-0.6-0.8-0.9-0.7c-0.4,0.1-0.8-0.1-1.4-0.5c-0.5-0.3-3.5-3.2-6.3-6.8
							c0.3-0.5,8-10.9,8.3-11.3c4.2,1.4,7.2,2.6,8.4,3.5c0.6,0.4,1.1,0.9,1.2,1.4c0,0.2,0.2,0.5,0.8,0.6c0.1,0,1,0.2,1.4-0.2
							c0.8-1.5,2.2-3.9,3.4-5.5c1.1-1.5,3.1-3.4,5.2-5.5c0.3-0.3,0.3-0.8-0.2-1.4c-0.4-0.4-1-0.8-1.3-0.5c-0.4,0.1-1.2,0.4-2.3,0.4
							c-2.2,0-10.5-2.2-17.6-4.2l-3.9-1.1l-3.4-1c-6.4-1.9-10.6-3.1-18-5.8l-0.4-0.1L28.3,251.5z M34.5,264.9
							c4.7,1,9.9,2.5,14.1,3.7c0,0,0.6,0.2,1.1,0.3c-0.5,0.8-5.8,7.9-6.3,8.6C41.6,275.2,37.3,269.3,34.5,264.9z"/>
						<path class="st1" d="M83.5,199.5l-0.4,0.3c-1.9,1.9-5.6,5-9.3,7c-0.2,0.1-0.4,0.4-0.3,1c0.1,0.3,0.4,1.2,1,1.2
							c1-0.1,2.6,0.2,3.5,0.8c1.6,1.1,6.2,6.6,13.4,16.2c-3.6,0.1-7.4-0.1-15-0.4c-8.5-0.4-14.7-1.6-20.9-2.8h-0.2l-0.2,0.2
							c-2.3,3-5.8,6.7-8.7,9.1c-0.3,0.3-0.3,0.8,0.1,1.4c0.2,0.3,0.6,0.8,1.1,0.7c1.1-0.5,2.1-0.7,2.7-0.6
							c2.3,0.1,5.6,2.9,14.3,11.8c5.6,5.8,9.9,10.9,11.3,13.1c0.5,0.8,0.7,1.4,0.5,2.5c-0.1,0.4,0.1,0.8,0.6,1.1
							c0.4,0.3,1.1,0.4,1.5,0l1.1-1.4c1-1.2,1.6-2,2.9-3.2l3.1-2.4l1.4-1c0.4-0.4,0-1.3,0-1.3c-0.3-0.7-0.8-0.7-1-0.6
							c-1.4,0.1-2.5-0.1-3.1-0.5c-1.9-1.1-6.7-5.9-15.4-15.6c1.5,0.1,17,1,17,1l8.5,0.4c4.9,0.2,10,0.5,14.4,0.5
							c0.6,0,1.3-0.8,1.5-1.2c0.2-0.3,0.2-0.5,0.3-0.8c0-0.2,0-0.3-0.1-0.4c-2.4-3.2-4.4-5.6-6.8-8.6l-6.1-7.9
							c-6-8.3-9.4-12.5-10.5-14.8c-0.4-0.8-0.5-1.8-0.4-2.5c0-0.3,0.1-0.6,0.1-0.7c0-0.1,0-0.1,0-0.2c0-0.5-0.5-0.9-0.8-1.2
							C84,199.2,83.7,199.4,83.5,199.5z"/>
						<path class="st1" d="M108.4,184.1L108.4,184.1c-2,1.3-4,2.8-5.9,4.2l-4.4,3.1c-1.3,0.8-4.6,2.9-6.4,3.5
							c-0.4,0.1-0.7,0.6-0.5,1.3c0.1,0.6,0.4,1.1,0.9,1.1c1.4,0,2.6,0.3,4.3,1.7c1.6,1.5,5.7,7.1,9.5,13c4.5,7,7.9,13.6,8.1,15
							c0.4,2.1,0.4,3.7-0.1,4.5c-0.2,0.6,0,1,0.4,1.3c0.4,0.2,0.9,0.2,1.2-0.1l2.2-1.8c1.5-1.3,3-2.6,4.8-3.7
							c1.1-0.7,2.3-1.3,3.7-1.9c1.9-0.9,4.1-1.9,6.6-3.6c6.1-3.9,10.1-9.1,11.4-15.1c1.3-5.8,0-12-3.8-17.9
							c-3.6-5.6-7.8-8.9-12.6-10C122.3,177.5,116,179.3,108.4,184.1z M111.7,189.3c2.6-1.7,5.6-2.3,8.5-1.7
							c3.9,0.8,7.5,3.8,10.6,8.5c5.8,9,5.6,15.7-0.7,19.7c-2.2,1.5-5.2,2.8-6.3,2.2l0,0c-0.8-0.4-2.4-2.8-8-11.5
							c-3.9-6.1-6.6-10.6-8.4-13.9C109,191.2,110.5,190.1,111.7,189.3z"/>
						<path class="st1" d="M188,159.5L188,159.5c-1.3,0.5-3.1,0.7-5.1,0.9c-1.6,0.1-3.4,0.3-5.3,0.7c-6.4,1.3-10,3.3-12.3,6.9
							c-1.6,2.5-2.2,5.6-1.6,8.4c1.2,5.8,4.9,9.3,11.6,11.1c7.9,2.1,9.4,4.1,10,7s-2.2,5.1-5.1,5.7c-4.5,0.9-8.2-0.6-10.4-4.1
							c-0.2-0.4-0.7-0.6-1.2-0.4c-0.5,0.2-1.2,0.8-1.1,1.3v0.1v0.1c0.4,0.7,0.7,2.3,0.9,3.2c0.6,2.8-0.1,6.1-0.1,6.1
							c0,0.6,0.3,1.1,0.6,1.3s0.6,0.2,0.8,0.1c2-0.6,4.1-0.8,6.3-1c1.9-0.2,3.6-0.3,5.8-0.8c5.8-1.2,10-3.6,12.2-7
							c1.8-2.7,2.3-5.9,1.6-9.3c-1-5-4.5-8.3-11.6-10.2c-6-1.6-9.2-3.1-9.9-6.4c-0.6-2.9,1.3-5.2,4.9-5.9c4.3-0.9,7.5,0.2,9,3.3
							c0.1,0.3,0.5,0.5,1.1,0.4c0.6-0.2,1.3-0.7,1.2-1.3l-0.3-1l-0.6-1.9c-0.6-2.9-0.4-4.1,0-5.7c0.1-0.4,0.1-0.8-0.3-1.1
							C188.9,159.4,188.3,159.3,188,159.5z"/>
						<path class="st1" d="M235.8,157.9L235.8,157.9L235,158l-1.7,0.1l-4-0.3l-5.6-0.4c-8.9-0.2-14.3,1.7-19,6.1
							c-4,3.8-6.1,9.3-6.2,16.5c-0.3,12.9,8.3,22.1,21.5,22.4c6.3,0.2,10.8-1,12.4-2.1c1-0.8,2-3.3,3.5-7.3c0.1-0.2,0.1-0.5-0.5-0.9
							c-0.4-0.3-1-0.5-1.4-0.1c-2,2-5.8,3.2-10.4,3.1c-8.8-0.2-13.2-6.4-13-17.2c0.1-5.3,1.5-9.3,4.1-11.7c2-2,4.4-3,7.9-2.9
							c5,0.1,9.3,2.4,10.8,5.7c0.2,0.5,1,0.4,1.5,0.3c0.8-0.3,0.8-0.7,0.8-0.9c-0.4-1.9,0.3-7.1,1-9.2c0.1-0.2,0.1-0.6-0.1-0.9
							C236.4,158.1,236.1,157.9,235.8,157.9z"/>
						<path class="st1" d="M246.2,159.5c-0.3,0.4-0.3,0.8,0,1.1v0.1c0.8,1.1,1.5,2,1.6,3.6c0.1,1.9-1.4,10-2.5,15.9
							c-1.4,6.9-3.3,14.8-4.3,17c-0.9,1.8-2.3,2.4-3.1,2.7c-0.4,0.2-0.5,0.7-0.5,1.2s0.3,0.8,0.6,0.9c1.7,0.4,3.3,0.5,4.8,0.6
							c1.2,0.1,2.4,0.2,3.5,0.4c1.5,0.3,2.9,0.8,4.3,1.2l3.7,1.1c0.5,0.1,0.9-0.4,1.1-0.9c0.1-0.2,0.1-0.4,0.1-0.5
							c0-0.3-0.1-0.6-0.3-0.7c-1.1-0.7-1.8-3.1-1.9-3.9c0-0.5-0.1-1,0-1.6c0.1-2.1,0.7-5.5,2-11.6c0.7,0.2,9.5,2,9.5,2
							s8.6,2,9.3,2.2c-0.6,2.6-3.4,11.7-4,13.2c-0.6,1.4-1.6,2.5-2.6,2.7h-0.1h-0.1c-0.2,0.2-0.3,0.5-0.4,0.8c0,0.3,0,0.6,0.1,0.8
							c0.2,0.6,0.5,0.7,0.7,0.7c1.8,0.1,5.4,0.5,7.7,1.1c1.7,0.4,3.3,1.1,4.8,1.7l1.7,0.7c0.4,0.2,0.9-0.1,1.3-0.5
							c0.2-0.3,0.3-0.6,0.3-0.9c0-0.3-0.1-0.6-0.3-0.8l0,0h-0.1c-0.3-0.2-1.1-1.7-1.2-2.9c-0.1-0.3-0.1-0.8,0-1.4
							c0.1-2.9,1.3-8.8,3.3-16.7c1.4-5.2,3.6-12.7,4.5-14.9c0.6-1.6,1.2-2,2.3-2.7l0.6-0.4c0.3-0.2,0.4-0.4,0.4-0.8
							c0-0.1,0-0.2,0-0.4c-0.1-0.5-0.5-1-1.1-1l-2.1-0.3c-1.5-0.2-3-0.3-4.6-0.7l-1.7-0.5l-5-1.7c-0.4-0.2-0.9,0-1.2,0.4
							c-0.2,0.2-0.2,0.5-0.3,0.7c0,0.3,0.1,0.5,0.2,0.7c0.8,0.9,1.1,1.9,1.1,3.5l0,0c-0.1,1.3-1.9,9.4-2.8,13.2
							c-2.4-0.3-4.8-0.9-7.1-1.4l-2.2-0.5c-2.8-0.6-7.8-1.8-9.9-2.4c0.9-4.4,2.5-10.7,3.6-13.6c0.4-1.2,1.6-2,2.1-2.3
							c0.3-0.2,0.5-0.5,0.5-0.8c0-0.1,0-0.2,0-0.3c-0.1-0.4-0.4-0.9-1-1l0,0l-2.5-0.3c-1.5-0.2-3.3-0.4-5.1-0.7l-0.8-0.1
							c-2-0.4-4.2-0.8-5.7-1.4C247.1,158.7,246.5,159.1,246.2,159.5z"/>
						<path class="st1" d="M306.1,179.3c-5.8,1.9-10.4,6.2-13.4,12.2c-1.6,3.2-2.5,6.5-2.7,9.7c-0.1,2.6,0.2,5.2,1,7.7
							c1.9,5.6,6.2,10.4,12,13.3c10.2,5.1,24.5,4,31.7-10.4c6.3-12.6,2.2-24.5-10.6-30.9C318.3,178,311.9,177.4,306.1,179.3z
							 M306.5,216.3c-2.3-1.1-3.9-3-4.7-5.4c-1.3-3.8-0.5-9,2.1-14.2c4.7-9.4,11.2-13.2,17.5-10.1c8.3,4.1,4.7,14.4,1.9,20.2
							C318.8,215.8,312.6,219.3,306.5,216.3L306.5,216.3L306.5,216.3z"/>
						<path class="st1" d="M356.3,206.2c-6.1,0.4-11.6,3.4-16.1,8.5c-4.3,4.9-6.3,10.6-5.9,16.5s3.4,11.6,8.3,15.9
							c5.1,4.4,11.3,6.6,17.5,6.2c6-0.4,11.5-3.3,15.8-8.4c4.5-5.2,6.6-10.9,6.2-16.6c-0.4-5.8-3.5-11.3-8.8-15.9
							C368.4,207.9,362.3,205.7,356.3,206.2z M349.8,222.4c6.9-8,14.2-10,19.5-5.4c7,6.1,1,15.2-3.2,20c-6.5,7.6-13.5,9.4-18.6,5
							l0,0C342.5,237.8,343.4,229.9,349.8,222.4z"/>
						<path class="st1" d="M395.6,236.2c-0.6,0.2-1.1,0.5-1,1.1l0,0c0.1,1.2,0,2.5-1.3,4.4c-1.2,1.7-6.8,6.3-12.1,10.5
							c-6,4.9-11.5,8.7-14,9.8c-1.9,0.8-3.7,0.8-4.4,0.5c-0.5-0.1-0.9,0.1-1.2,0.4c-0.2,0.4-0.2,0.9,0,1.2c1.1,1.3,2.1,2.3,3.1,3.3
							c0.9,0.9,1.8,1.7,2.6,2.7l3.1,4.2c1.8,2.5,3.9,5.5,5.9,7.9c2.9,3.6,3.8,4.4,5.3,4.2c1.8-0.2,5.8-1.1,8.6-2
							c0.4-0.2,0.6-0.7,0.5-1.2c-0.1-0.4-0.4-1-0.9-1c-3.3-0.4-5.3-1.5-9.6-6.8c-2.2-2.7-2.9-4.2-2.4-5.1c0.6-1.1,3.8-4,10.6-9.5
							c4.7-3.8,10.7-8,12.3-8.9c2.3-1.3,3.7-1.1,5.2-0.8c0.2,0,0.8,0.1,1.1-0.8c0,0,0.4-1.2-0.2-1.4c-1.3-1.1-3.2-3.2-5.3-5.8
							c-2.1-2.6-3.8-5-4.5-6.4C396.8,236.2,396.2,236,395.6,236.2z"/>
						<path class="st1" d="M399.4,269.4c-2.5,1.6-3.8,5.2-1.7,8.5c1,1.6,2.5,2.7,4.1,3c1.6,0.4,3.2,0.1,4.6-0.8
							c2.6-1.7,4.1-5.2,1.9-8.8c-1-1.5-2.3-2.5-3.9-2.9C402.7,268.1,401,268.4,399.4,269.4z"/>
						<path class="st1" d="M408.8,289c-8.6,3.7-13.6,10.8-14,19c-0.2,3.6,0.5,7.3,2.1,11.1c2.7,6.2,7.3,10.9,13,13.2
							c5.6,2.2,11.8,2,17.9-0.6c6.3-2.7,10.7-6.9,12.9-12.2c2.2-5.4,1.8-11.7-1-18.2c-2.6-6.1-7.2-10.7-12.8-12.9
							C421.4,286.1,415.1,286.3,408.8,289z M402.6,312.7c0.2-4.8,4.4-9.6,11.4-12.6c5.8-2.5,11-3,14.7-1.5c2.4,0.9,4.1,2.7,5.2,5.2
							c1,2.4,1.1,4.7,0.2,6.9c-1.5,3.7-5.6,7.1-11.8,9.8c-9.2,3.9-16.3,2.6-18.9-3.6C402.8,315.4,402.6,314.1,402.6,312.7z"/>
						<path class="st1" d="M448.9,335.2L448.9,335.2c-0.5,1.2-1.2,2.2-3.3,3.3c-1.7,0.9-8.1,2.5-15.7,3.9s-14.3,2.2-17,1.9
							c-2.1-0.2-3.4-1.1-3.8-1.6c-0.4-0.4-1.1-0.3-1.6-0.1c-0.5,0.3-0.5,0.6-0.5,0.8c0.3,1.7,0.9,3.3,1.4,4.8
							c0.5,1.4,0.9,2.7,1.2,3.9l0.2,2.8c0.1,1.8,0.2,3.9,0.5,5.5c0.1,0.4,0.4,0.6,1,0.7c0.4,0.1,1,0,1.2-0.4
							c0.5-1.6,1.6-2.9,3.1-3.7c1.6-0.8,6-1.9,11.1-2.8c0.7,4.1,1.3,7.9,1.2,10.6c-0.1,1.4-0.3,2.4-0.8,3.1
							c-0.1,0.1-0.2,0.3-0.2,0.4c0,0.4,0.2,0.8,0.4,1c0.4,0.6,0.9,0.6,1,0.5c1.1-0.4,2.9-0.9,4.1-1.1c1-0.2,3.2-0.3,4.5-0.2
							c0.3,0.1,0.5-0.1,0.7-0.4c0.1-0.2,0.2-0.5,0.2-0.8c0-0.4,0-0.7-0.2-0.9c-1.7-1.3-3-5.2-4.6-13.4c4.5-0.8,11-1.8,13.9-2.2
							c0.1,0.4,0.3,1.2,0.3,1.2l0.8,3.4c0.4,2.1,0.5,4,0.4,5.8c-0.1,2.7-0.9,4.9-2.1,6.4c-0.1,0.2-0.2,0.4-0.2,0.6
							c0,0.3,0.1,0.6,0.3,0.9c0.3,0.4,0.6,0.5,1,0.4c1.6-0.7,3.6-1.3,4.8-1.4c1.1-0.1,2.9-0.3,4.4-0.1c0.3,0.1,0.6-0.1,0.9-0.4
							c0.3-0.4,0.4-0.9,0.2-1.3c-0.8-1.6-2.6-7.9-4.9-20.3c-0.4-2.2-1.4-8.3-1.3-10.2c0-0.4-0.3-0.8-1-1
							C449.8,334.6,449.1,334.7,448.9,335.2z"/>
						<path class="st1" d="M436.6,377.4c-1.5,0.1-3.1,0.8-4.1,2c-0.7,0.8-1.4,2-1.5,3.8c0,0.2,0,0.5,0,0.8c0.1,1.9,0.9,3.5,2.1,4.7
							c1.2,1.1,2.8,1.6,4.4,1.5c3.1-0.2,6.1-2.6,5.9-6.8C443.2,379.7,440.4,377.2,436.6,377.4z"/>
						<path class="st1" d="M415.2,392.6c-0.4,0.2-0.7,0.6-0.7,1l0,0l0.1,2.9c0.1,1.9,0.2,3.9,0,6.1c-0.1,1.3-0.4,2.6-0.7,4.1
							c-0.5,2.1-1,4.4-1.2,7.4c-0.7,7.2,1,13.5,4.9,18.2c3.8,4.6,9.5,7.3,16.5,8c6.6,0.6,11.9-0.7,15.6-3.8
							c4.3-3.6,6.8-9.7,7.7-18.7c0.2-2.4,0.3-4.8,0.3-7.2l0.2-5.4c0.1-1.6,0.5-5.4,1.1-7.2c0.2-0.4-0.1-0.9-0.7-1.2
							c-0.5-0.3-1.2-0.4-1.5,0.1c-0.8,1-1.8,1.8-4,2.2c-2.1,0.3-9.1,0.3-16-0.4c-7.7-0.7-14.4-1.8-16.8-2.8
							c-1.9-0.8-3.2-2.1-3.5-2.8C416.1,392.5,415.7,392.4,415.2,392.6z M434.1,428c-10.4-0.9-15.8-5.4-15.2-12.6
							c0.2-2.6,1.1-5.7,2.2-6.1c0.8-0.3,3.3-0.2,13.9,0.8c7.2,0.7,12.4,1.3,16.2,1.9c0.1,1.5,0.1,2.8,0,4c0,0.4,0,0.8-0.1,1.2
							c-0.2,3.2-1.6,5.8-3.8,7.8C444.3,427.4,439.7,428.5,434.1,428z"/>
						<path class="st1" d="M410.6,437.5c-0.4,0-0.9,0.3-1,0.7l0,0c-0.5,1.6-0.7,3.3-1,4.9c-0.2,1.5-0.4,2.8-0.8,4l-2.1,5.7
							c-1.3,3.3-2.3,5.3-3.2,8.2c-1.4,4.5-1.2,6-0.6,6.8c1.1,1.5,3.1,3,6.8,5.1c0.3,0.2,0.7,0.1,1.1-0.2c0.4-0.4,0.7-1,0.4-1.5
							c-1.7-2.8-2.2-4-0.2-10.7c1.8-5.8,2.7-5.5,3.3-5.5c0.9-0.1,5.9,1.1,10.5,2.5c-1.3,4-3.7,11.5-5.4,12.1
							c-0.4,0.2-0.5,0.7-0.6,1.1c0,0.2,0,0.4,0,0.5c0.1,0.6,0.5,0.8,0.7,0.8c1.3,0,3.1,0.6,4.1,0.9c0.9,0.3,2.2,0.8,3.8,1.6
							c0.1,0,0.4,0.2,0.8-0.2c0.2-0.2,0.5-0.9,0.6-1.3c0-0.1,0-0.2-0.1-0.3c-0.2-0.5-0.3-1.2-0.2-2.4c0.1-2.2,0.8-5.8,2.3-10.9
							c3.9,1.2,8.3,2.8,11.3,3.9c-0.1,0.4-0.3,1.1-0.3,1.1l-1,4c-1.3,4.3-3.7,7.5-6.1,8c-0.4,0.1-0.6,0.5-0.6,1c0,0.1,0,0.1,0,0.2
							c0,0.6,0.3,0.9,0.7,1c1.3,0.3,4.4,1.3,5.4,1.7l1.8,0.9l1,0.6c0.4,0.2,0.8,0.2,1.2,0c0.3-0.2,0.5-0.5,0.5-1
							c0-2,1.3-8.1,4.7-19.3c0.7-2.1,2.7-8.2,3.6-9.8c0.2-0.2,0.2-0.7-0.4-1.2c-0.4-0.4-1.1-0.7-1.5-0.3c-0.9,0.7-2.1,1.4-4.4,1.3
							c-2,0-8.5-1.4-15.7-3.6c-7.4-2.3-13.7-4.7-15.9-6.2c-1.6-1.1-2.7-2.7-2.8-3.5C411.4,437.7,411,437.5,410.6,437.5z"/>
						<path class="st1" d="M399.7,471.7c-0.3,0.1-0.5,0.3-0.6,0.6v-0.1c-0.8,2-2,3.8-3.2,5.6c-1.1,1.6-2,3.1-3.1,5.1
							c-4.8,9.4-3.3,17.3,4.1,21.1c4.6,2.3,9.5,1.4,15.4-2.8c5-3.7,8.2-5.3,11.2-3.7c1.1,0.6,1.9,1.4,2.2,2.5c0.5,1.4,0.2,3.2-0.7,5
							c-2,3.9-4.9,5.7-8.2,5c-0.3-0.1-0.7,0-1,0.6c-0.2,0.5-0.3,1.5,0.2,1.8l1,0.3l1.9,0.7c2.6,1.3,3.4,2.2,4.4,3.5
							c0.2,0.4,0.6,0.5,1,0.5c0.5-0.1,0.9-0.4,1-0.8c0.4-1.3,1.4-2.8,2.5-4.5c0.9-1.3,1.9-2.9,2.8-4.5c3-5.8,3.7-9.9,2.4-13.9
							c-0.9-2.8-2.9-5.2-5.5-6.6c-5.2-2.7-10.3-2-15.9,2.1c-6.6,4.8-9.2,5-11.9,3.7c-0.9-0.5-1.6-1.2-1.9-2.3
							c-0.5-1.5-0.2-3.5,0.7-5.3c2.1-4.1,5.7-6.1,9.8-5.6c0.5,0.1,0.9-0.2,1-0.7c0.2-0.5,0.1-1.5-0.3-1.7h-0.1h-0.1
							c-0.8-0.1-2.3-0.9-3.1-1.3c-2.6-1.3-4.7-3.9-4.7-3.9C400.7,471.6,400.1,471.6,399.7,471.7z"/>
						<path class="st1" d="M383.2,501.4l-1.7,2.9l-2.7,4.5c-1.2,1.6-3.5,4.3-5.1,6.1c-0.3,0.4-0.3,0.9,0,1.3
							c0.3,0.5,0.9,0.9,1.4,0.7c0.9-0.4,2.6-1,5-0.1c2.3,0.9,6.6,3.6,13.8,8.7c5,3.5,10.2,7.5,12,9.2c2,1.8,2.3,3.4,2.3,4.6
							c0,0.3,0.2,0.7,0.8,0.8c0.4,0.1,1.5,0,1.6-0.5c0.7-1.6,2-3.7,3.9-6.4c2-2.8,3.9-5.2,5-6.2c0.4-0.3,0.4-0.8,0-1.4
							c-0.3-0.5-0.8-0.9-1.3-0.7c-1.2,0.5-2.4,0.7-4.6-0.1c-1.8-0.7-7.5-4.3-13.6-8.5c-5.5-3.9-12.1-8.8-13.5-10.7
							c-1.2-1.5-1.1-2.4-1.1-3.3v-0.1c0-0.4-0.3-0.8-1-1C384.2,501.1,383.5,501,383.2,501.4z"/>
						<path class="st1" d="M357.7,532.4L357.7,532.4c-6.3,6.4-8.2,10.2-9.7,13.3l-1.6,2.9l0.2,0.2c2.9,2.8,7.7,7.7,9.3,9.4
							c1.7,2,2.3,3.2,2.3,4.3c0,0.2,0,0.8,1,1c0.3,0.1,1.2,0.2,1.4-0.3v0.1l0.7-1.2c0.5-0.8,0.9-1.6,2.6-3.3c1.9-2,4-3.7,5.6-4.8
							c0.3-0.1,0.5-0.5,0.2-1.2c-0.2-0.6-0.7-1.1-1.2-1c-1.2,0.2-1.8,0.3-3.6-0.6c-1.1-0.5-4.3-3.6-7.6-6.9c0.3-1.3,0.8-3,3.2-5.4
							c2.3-2.4,5.1-3.6,8.3-3.6c4.6-0.1,9.6,2.3,14,6.6c3.5,3.4,5.3,6.9,5.3,10.4c0,3.3-1.4,6.5-4.3,9.4c-5,5.2-8,5.7-12.8,4.9
							c-0.6-0.1-1,0.8-1.1,1c-0.3,0.8,0,1.1,0.1,1.2c1.6,0.9,5,5.4,6,7.4c0.1,0.3,0.4,0.5,0.7,0.6c0.3,0.1,0.7,0,0.9-0.3l1.7-2.2
							l3.7-3.5l4.8-4.6c6-6.1,8.9-12.3,8.8-19c-0.1-5.7-2.6-11-7.6-15.9C379.5,522.3,367.2,522.6,357.7,532.4z"/>
						<path class="st1" d="M340,549.4L340,549.4l-1.3,1.3c-1.1,1.1-2.2,2.1-3.6,3.1l-3.4,2l-1.5,0.8c-0.5,0.3-0.2,1.2-0.2,1.3
							c0.2,0.5,0.5,0.8,0.9,0.8c1.4,0.1,2.4,0.4,3.1,0.9c1.7,1.3,5.8,6.8,13.1,17.6c-1.6-0.3-16.4-3-16.4-3l-8.4-1.5
							c-4.8-0.9-9.8-1.8-14.1-2.5c-0.6-0.1-1.4,0.6-1.7,1c-0.4,0.4-0.5,0.9-0.3,1.2c1.9,3.5,3.8,6.7,5.8,10l4.7,7.9
							c5.1,8.9,8.1,14.1,8.9,16.5c0.4,1.2,0.2,2.8-0.1,3.2c-0.3,0.5,0.2,1.2,0.5,1.5c0.5,0.5,0.8,0.4,1,0.3l0.4-0.3
							c2.2-1.6,6.2-4.5,10.1-6c0.2-0.1,0.5-0.3,0.4-1c0-0.3-0.2-1.2-0.8-1.3c-1,0-2.6-0.5-3.4-1.2c-1.5-1.4-5.3-7.2-11.5-17.8
							c3.6,0.4,7.3,1.1,14.8,2.5c8.4,1.5,14.1,3.2,20.1,5.3l0.2,0.1l0.2-0.2c2.6-2.6,6.7-5.8,9.8-7.8c0.4-0.2,0.4-0.7,0.1-1.4
							c-0.2-0.4-0.5-0.9-1-0.8c-1.2,0.3-2.2,0.4-2.8,0.2c-2.3-0.4-5.2-3.6-12.5-13.6c-4.8-6.6-8.4-12.4-9.4-14.8
							c-0.3-0.9-0.2-1.6,0.1-2.6c0.1-0.4,0-0.8-0.4-1.2C341.1,549.3,340.4,549.1,340,549.4z"/>
						<path class="st1" d="M133.8,581.3c-1.5,0.6-2.6,1.7-3.3,3.3c-0.3,0.6-0.4,1.2-0.4,1.9c0,0.8,0.1,1.6,0.4,2.4
							c0.4,1,1.2,2.4,3.1,3.2c3.2,1.4,6.5,0.3,7.8-2.8c0.7-1.5,0.7-3.1,0.2-4.5s-1.7-2.5-3.2-3.2
							C136.8,580.9,135.2,580.8,133.8,581.3z M125.6,599.8c-1.4,0.6-2.6,1.7-3.3,3.3l0,0c-1.1,2.6-0.3,6.1,3.1,7.6
							c3.2,1.4,6.5,0.3,7.9-2.8c0.7-1.5,0.7-3.1,0.2-4.5s-1.7-2.5-3.3-3.2C128.6,599.3,127,599.2,125.6,599.8z"/>
						<path class="st1" d="M166.9,584.2L166.9,584.2c-1.8,0.7-4,1-6.7,1.1c-2.9,0.1-5.7-0.2-7.8-0.3c-0.6,0-1,0.5-1.1,1.1
							c-0.1,0.5,0,0.9,0.3,1.1c1.2,0.6,1.8,1.7,1.9,3.6c0.2,1.3-1.2,6.9-3.3,14c-2.1,6.8-4.1,12.2-5.4,14c-1,1.6-1.9,2-2.7,2.2
							c-0.6,0.2-0.7,0.8-0.7,1.4c0,0.6,0.2,1,0.6,1.1l3.2,0.7l5.2,1.2c1.8,0.6,4.7,1.8,7.2,2.9c0.4,0.2,0.9,0,1.3-0.4
							c0.3-0.4,0.6-1.1,0.2-1.6c-1-1-1.5-2.6-1.4-4.6c0.1-2.7,1.6-8,3.9-15.8c2.8-9.2,5.1-15.7,6.9-20c0.2-0.3,0.1-0.7-0.2-1
							C168,584.3,167.4,584,166.9,584.2z"/>
						<path class="st1" d="M183.3,592.9c-2.7,2.1-4.3,4.9-4.6,8c0,0.4-0.1,0.7-0.1,1c-0.2,4.8,2,7.5,4.6,9.7
							c-4.9,2.3-8.2,6.1-8.6,10.2c0,0.3-0.1,0.6-0.1,0.9c-0.3,6.7,4.8,11.3,13.9,12.4c13.2,1.6,20.9-4.6,21.7-11.5
							c0-0.3,0.1-0.7,0.1-1c0.2-4.6-1.9-8-6.9-11.2c3.8-1.7,7.5-4,8-8.2c0-0.3,0.1-0.6,0.1-0.9c0.4-6.9-5.1-11.6-14.8-12.8
							C191.7,588.9,186.8,590.2,183.3,592.9z M189.1,599.5c0-0.1,0-0.3,0-0.4l0,0c0.2-1.6,0.9-2.9,2-3.8c1.3-1,3-1.4,5-1.2
							c5,0.6,6.6,4,6.4,7.3c0,0.2,0,0.4-0.1,0.6c-0.2,2-2,4.8-5.4,6.2C191.5,605.7,189,603,189.1,599.5z M184,622.4
							c0-0.2,0-0.4,0-0.6c0.3-2.9,2.1-5.5,4.4-6.7c3.4,1.4,10.7,4.7,10.4,9.1c0,0.1,0,0.2,0,0.3c-0.4,3.8-3.7,6.1-8,5.6
							C186.6,629.7,183.8,626.4,184,622.4z"/>
						<path class="st1" d="M246.5,589.9L246.5,589.9c-1.1,0.4-6.1,1.2-11.8,1.7c-6.4,0.5-10.9,0.3-13.5-0.7
							c-0.4-0.1-0.9,0.1-1.2,0.4c-0.2,0.2-0.4,0.5-0.3,0.8c0.2,1.9,0.1,6.6-1.3,10.6c-0.1,0.3,0,0.6,0.5,0.8
							c0.4,0.2,1.4,0.3,1.7-0.2c1.8-2.7,4.1-3.7,13.8-4.5c-1.9,14.2-4.9,25.9-6,28.8c-1.1,3.1-3.2,6.1-4.8,7
							c-0.2,0.2-0.3,0.4-0.3,0.6c0,0.2,0,0.4,0.1,0.6c0,0.1,0.4,0.9,0.9,0.8c4-0.7,8.2-2.4,10-4.1c3.2-3,5.6-8.2,7.4-15.4l2.1-8.6
							c1.3-5.7,2.6-11.1,4.4-17.4c0.1-0.3,0-0.6-0.3-0.9C247.5,589.8,246.9,589.7,246.5,589.9z"/>
						<path class="st1" d="M279.9,581.9L279.9,581.9c-1,0.6-5.8,2.2-11.3,3.7c-6.2,1.6-10.7,2.1-13.5,1.7c-0.4,0-0.9,0.3-1.2,0.6
							c-0.2,0.3-0.3,0.6-0.2,0.8c0.5,1.9,1.2,6.5,0.6,10.7c0,0.3,0.1,0.6,0.6,0.7c0.5,0.1,1.4,0.1,1.7-0.5c1.3-3,3.4-4.4,12.8-6.8
							c0.3,7.9,0.2,15-0.1,20.4c-0.2,4.4-0.6,7.6-0.8,9c-0.6,3.3-2.1,6.6-3.5,7.7c-0.1,0.1-0.2,0.3-0.2,0.5s0.1,0.4,0.2,0.7
							c0.1,0.1,0.5,0.8,1,0.7c3.8-1.4,7.6-3.8,9.2-5.7c2.6-3.5,4.1-9,4.6-16.5l0.5-8.9c0.3-5.9,0.7-11.4,1.4-17.9
							c0-0.3-0.1-0.6-0.4-0.8C280.9,581.7,280.3,581.7,279.9,581.9z"/>
						<path class="st1" d="M292.8,583.1L292.8,583.1c-1.6,0.7-2.7,1.8-3.3,3.2c-0.6,1.4-0.5,3.1,0.1,4.7c0.5,1.3,1.7,2.4,3.1,3
							c1,0.4,2.6,0.7,4.5-0.1c1.6-0.7,2.8-1.8,3.4-3.3c0.6-1.4,0.5-2.9-0.1-4.4C299.5,583.6,296.6,581.5,292.8,583.1z M300.7,601.7
							c-1.6,0.7-2.7,1.8-3.3,3.2c-0.2,0.6-0.4,1.2-0.4,1.8c0,0.9,0.1,1.9,0.5,2.8c1.1,2.6,4.2,4.4,7.6,3c3.3-1.4,4.6-4.5,3.3-7.7
							C307.3,602.1,304.4,600.1,300.7,601.7z"/>
					</g>
				</g>
				<path class="st1" d="M104.8,581.2c-3-3-5.7-4.4-8.6-4.4c-2.2,0-7.1,4.6-7.4,9.4c-0.3,5.4,3.5,7.4,6.7,8.8
					C98,591.2,104.3,582.3,104.8,581.2z"/>
			</g>
			<path class="st1" d="M269.4,350.7c-5.8,8.3-9.2,10.6-11.7,12.8c0-3.4-6.2-8-13.3-8c-5.9,0-11.6,2.7-11.7,9.7
				c-0.1,11.2,5,15.4,14,25.3c10.6,11.2,17.9,19.3,17.8,28.3c-0.1,18.9-21.3,34.6-39.2,34.5c-3.5,0-10.1-1.2-12.5-2.8
				c0-6.4,4.6-13.9,8.8-18.7c1.6,4.8,8.6,9.7,18.2,9.7c5.5,0,12.1-4.2,12.2-11.3c0-6.5-7.1-15.9-17.5-26.7
				C224.4,393.3,219,385.8,219,376c0.1-19.4,20.4-31.6,37.2-31.5C262.4,344.6,267.6,347.5,269.4,350.7z M204.3,439.2
				c-1.2,5.7-3.3,8.3-8.8,11.3c-2.7,1.5-11.3,1.7-28,1.7c1.8-3.2,3.4-7.7,4.5-11.7c1.2-5.6,2.8-13.5,6-36c3.3-23.6,5-36.2,6.3-46.2
				c-4.8-0.2-11-0.1-15,0.7c2.1-3.4,7.9-9.2,10.2-10.3c2.2-1.1,6.5-2.5,24.7-2.5c-2.8,7.8-6.3,26.8-9.7,50.8
				c-3.3,23.9-4.4,30.9-5.8,43.7C193.4,440.8,200.6,440.9,204.3,439.2z M102.8,393.9c2.8,0.7,5.8,0.5,9,0.5c3.7,0,8.5-0.8,11.7-2.3
				c6.9-3.7,11.6-11.2,11.7-20.7c0.1-10.1-7.4-17.8-26.3-17.9C107,366.2,104.4,381.8,102.8,393.9z M309.7,493.6
				c0-7.2-6.8-11.9-16.3-11.9c-9.9,0-19.4,2.5-25.5,4.4c5.9,5.1,12.7,14.4,12.6,24.7c0,0.5,0,2.2-0.1,3.6
				C294.9,512,309.6,504.7,309.7,493.6z M204.6,507c6.7-3.2,13-5.9,21.2-9.7c-4-5.6-9.8-8.9-19.1-8.9c-8,0-13.4,1.4-18.8,4.6
				C193.5,499.4,197.9,503.3,204.6,507z M228.6,514.7c0.4-1.3,0.8-2.5,0.8-5c0-2.7-0.4-4.5-1.2-7.2c-6.1,2.9-11.6,5.4-17.1,7.6
				C216.8,512.6,221.2,513.6,228.6,514.7z M157.5,516.7c0-9.3,4.9-15.8,13.2-21.6c-6.4-6.1-11.8-12.8-17.1-21.4
				c-15.5,4.7-26.1,13.1-26.1,24.4c0,7.2,3.8,21.1,24,21.2c1.6,0,3.9-0.2,5.9-0.1C157.4,518.5,157.5,517.3,157.5,516.7z
				 M174.7,516.4c7.5-1.5,11.4-3.3,19.6-6.2c-6.3-2.9-10.1-5.4-15.6-9.7C176,504.2,173.8,510.7,174.7,516.4z M183.3,487.7
				c7.4-2.7,15.3-4.3,23.8-4.3c12.5,0.1,22.4,3.9,28.8,9.5c5.6-2.4,9.7-4.1,14.9-6.3c-11.6-11.8-30.4-18.8-57-18.9
				c-8,0-15.2,0.7-22.9,1.8C175.9,477.2,179.2,482.1,183.3,487.7z M251,516.6c4.3,0,8-0.1,12-0.1c0.6-9.4-2.6-18.2-8.1-25.4
				c-5.6,2.1-9.4,3.7-14.9,6.3c3.4,4,4.9,8.2,4.9,12.5c0,2.7-0.4,4.6-0.9,6.3C246.6,516.4,248.4,516.6,251,516.6z M175.4,522.6
				c2.4,12.4,19.8,25.7,43.6,25.8c24.2,0.1,39-12.3,43.3-26.3c-4,0.2-7,0.2-11.3,0.2c-3.5,0-7-0.1-10.7-0.4
				c-4,6.1-12.6,9.7-22.7,9.7c-5.9,0-12.4-3.1-15.1-7.2c-0.4-0.6,0.1-2,0.9-1.6c2.8,1.8,5.5,2.5,9.3,2.5c4.1,0,9.6-1.6,12.3-4.8
				c-8.8-1.4-15.7-3.4-23.7-6.3C193.2,517.4,186.3,519.7,175.4,522.6z M309.4,396.1c-2.5,23.9-3.6,34.2-4.2,43
				c15.5,2.2,31,1.3,39.5-6.7c7.4-6.9,13.9-23.1,14-38c0.1-12.5-2.4-21.8-8.5-28.2c-8.5-8.8-14.7-10.3-36-10.7
				C312.6,367.5,310.8,384.6,309.4,396.1z M328.7,327c6.1,0,14.8-4.2,14.8-10.6c0-2.9-3.3-5.7-7.3-5.7c-7.7,0-14,4.4-16.8,15.4
				C322.9,326.6,325.2,327,328.7,327z M193.7,269.8c0,9.3,3.7,14.6,10.4,19.4c4.5-3.7,9.3-7.8,14.6-11.8
				C209.9,273.4,193.7,269.8,193.7,269.8z M152.2,291.5c9.6,0,20.4,3.1,35.5,11.2c3.7-2.6,5.7-4.7,10-8.1
				c-12.7-6.2-20.5-14.7-20.9-26.1c-12.7-0.1-22.1,2.4-29.2,6.2c-8.3,4.4-13.5,11.7-14.3,20.4C139.7,293,145.3,291.5,152.2,291.5z
				 M151.7,296.7c-6.1,0-12,1.3-18.6,4.5c1.3,11.2,9.3,20.4,20.2,20.5c7.7,0,13.8-2.6,28.3-14C170.7,301,161.9,296.7,151.7,296.7z
				 M115.9,298.3c0.1-17,21.9-35.4,60.7-35.3c2.2-14.6,23.3-23.2,43.8-23.1c21,0.1,42.3,10.1,54.3,20c29.3,0.1,48.4,14,48.4,25.1
				c0,5.1-4.9,9.9-12.9,9.9c-2.9,0-6.5-2.3-6.5-4.8c4.3-1.4,7.4-3.8,7.4-7.5c0-10.9-10.6-16.9-30-17c8.5,8.6,15.8,20.4,15.7,36.4
				c0,5.3-1.1,10-3.6,13.9c6.4,3.8,10.6,5.5,16.3,7.4c5.9-10.6,16.2-17.2,27.9-17.2c11.7,0.1,18,4.2,18.1,11.2
				c0.1,6.1-11.1,14.3-24.9,14.2c-4.8,0-7.5-0.1-12.1-0.4c-1.1,5.3-1.8,8.4-2.7,14.5c21.8-0.2,39,0,49.8,11
				c7.1,7.2,10.1,17.4,10,28.8c-0.1,18.4-9.9,38-23.7,49.7c-13.1,11.2-20.6,17-55.5,17c-5.6,0-10.6-0.5-13.5-0.8
				c2.9-3.4,3.1-5.6,4.5-10.3c1.6-7.2,3.8-21.2,6.8-45.7c1.9-16.5,3.5-28.8,5.2-40c-10.6,0.2-13.2,0.9-16.7,3
				c-2.4,1.3-4.3,4.2-4.2,7.2c0.1,2.4,1.4,5,2.5,6.3c-2.7,3.2-9.4,7.7-12.8,9.8c-1.3-1.6-3.8-6.3-3.8-9c0-5.1,4.1-11.1,11.8-17.2
				c7.5-5.8,14.2-8.8,24.8-9.5c1.6-8.2,3.8-11.7,5.4-16.9c-6.4-1.9-10.3-3.7-17.5-7.4c-7.8,8.5-21.4,12.2-32.6,12.2
				c-20.7-0.1-42.3-6.8-62.9-19.4c-13.6,8.7-25,12.5-40.2,12.4c-16.2-0.1-27.3-5.8-32.9-14.3c-6.4,10.6-8,19.6-10.2,31.1
				c19.3,0.1,29.8,1.8,35.3,6.8c2.8,2.6,5.5,7.4,5.5,11.7c-0.1,14.4-8.4,24.2-22.5,34.5c8.4,14.1,27.2,47.3,39.6,67.9
				c8.3-1,16.6-1.5,26.4-1.4c22.1,0.1,51.4,5.9,68.9,19c13.3-4.5,25.3-7.5,34.6-7.4c19.7,0.1,30.6,5.7,30.6,14.5
				c-0.1,14.4-20.8,27.2-49.2,31.2c-7.1,22.5-39.3,33.9-62.4,33.8c-33.2-0.2-54-12.8-58.4-29.1c-1.6,0.3-4.9,0.4-6.8,0.4
				c-24.5-0.1-42-11.3-41.9-26.1c0.1-14.4,14.2-26.2,40.3-31.6c-16.9-27.7-30.1-51-37.8-63.3c-3.7,0-9.7,0.2-11.3,0.2
				c-2.2,15.9-3.6,28.2-5,37c5.1,0,8.3,0,13.7-1c-1.1,3.5-6.4,9.1-9.7,11c-2,1.1-7.2,1.5-12.7,1.7c-5.7,0-11.3-0.1-13.9-0.2
				c2.2-3,4.7-7.6,5.9-11.5c1.3-4,3.9-21.8,7.3-44.2c3.5-22.6,5.3-34.9,6.7-44.7c-7.4,0-11.5,0.5-14.2,2.5c-2.2,1.6-3.3,5-3.3,9
				c0,1.6,0.5,3.5,1,4.8c-3.2,2.1-9.4,5.3-13.2,7.2c-1-1.3-2.3-4.1-2.3-7.3c0-3.2,1.4-7.8,5.5-11.7c7.7-7.3,17.7-11.1,27.8-12.7
				c3.8-18.1,11.1-30.9,22-39.6C116.3,302.8,115.9,300.7,115.9,298.3z M231.6,284c-5.3,3.7-8.9,7.3-13.8,11.3
				c4.8,1.4,8.5,1.6,13.3,1.6c6.6,0,11.4-1.9,13.9-4.3C239.3,288.7,236.3,287,231.6,284z M199.6,309.7c17.5,9.7,32.9,16.7,46.4,16.8
				c10.1,0,20.5-4.8,28.7-13.1c-6.4-4.3-13.3-9.4-19.9-14.2c-4.3,2.4-9.3,3.8-15.4,3.8c-9.3,0-18.2-1.2-26.8-3.4
				C207.6,303.9,204.2,306.6,199.6,309.7z M233.1,261.3c-0.8-0.3-1-1,0-1.3c4.5-1.1,12.1,0.7,16.4,2.9c5.9-1.6,9.4-2,15.5-2.4
				c-12.4-8.5-26-13.3-41.5-13.3c-13.6,0-27.4,6.5-29.1,17.3c10.9,2.5,19,5,29.1,9.6c5.4-3.4,12-6.6,18.6-9
				C239.4,263.3,237.3,262.1,233.1,261.3z M264.7,285.4c-0.1,3.7-0.8,6.3-4,9.3c6.9,4.8,12.5,8.8,18.6,13.1c3.7-5.3,5-10.6,5-17.5
				c0-9.3-7.6-20.8-11.9-24c-5.9,0.5-9.3,0.9-14.9,3C262.7,274.4,264.8,280.5,264.7,285.4z M251.3,280.2c-0.1-2.6-0.3-4.3-1.6-7.5
				c-3.5,1.6-10,5.8-13.1,7.8c3.6,2,8.2,4,13,7.3C251.2,285,251.4,282.9,251.3,280.2z"/>
		</g>
	</g>
</g>
</svg>
